<?xml version="1.0" standalone="no"?>
<!DOCTYPE svg PUBLIC "-//W3C//DTD SVG 1.1//EN" "http://www.w3.org/Graphics/SVG/1.1/DTD/svg11.dtd" >
<svg>
<metadata>
Created by FontForge 20120731 at Sun Jun 30 14:32:13 2019
 By www
Copyright (c) 2012 by TipografiaRamis. All rights reserved.
</metadata>
<defs>
<font id="RamsW01-Black" horiz-adv-x="550" >
  <font-face 
    font-family="RamsW01-Black"
    font-weight="900"
    font-stretch="normal"
    units-per-em="1000"
    panose-1="0 0 0 0 0 0 0 0 0 0"
    ascent="750"
    descent="-250"
    x-height="478"
    cap-height="682"
    bbox="-19 -251 1224 963"
    underline-thickness="50"
    underline-position="-125"
    unicode-range="U+0002-2122"
  />
<missing-glyph horiz-adv-x="260" 
 />
    <glyph glyph-name=".notdef" horiz-adv-x="260" 
 />
    <glyph glyph-name=".null" horiz-adv-x="0" 
 />
    <glyph glyph-name="uni000D" unicode="&#xd;" horiz-adv-x="260" 
 />
    <glyph glyph-name="uni0002" horiz-adv-x="0" 
 />
    <glyph glyph-name="uni0009" unicode="&#x9;" horiz-adv-x="260" 
 />
    <glyph glyph-name="uni000A" unicode="&#xa;" horiz-adv-x="0" 
 />
    <glyph glyph-name="space" unicode=" " horiz-adv-x="260" 
 />
    <glyph glyph-name="exclam" unicode="!" horiz-adv-x="350" 
d="M260 378l-15 -136h-140l-15 136v342h170v-342zM260 169v-169h-170v169h170z" />
    <glyph glyph-name="quotedbl" unicode="&#x22;" horiz-adv-x="460" 
d="M60 720h148l-43 -279h-105v279zM272 720h148l-43 -279h-105v279z" />
    <glyph glyph-name="numbersign" unicode="#" 
d="M22 288h110l11 83h-94v149h116l23 162h98l-24 -162h77l24 162h97l-24 -162h92v-149h-113l-12 -83h98v-149h-120l-19 -139h-98l20 139h-78l-20 -139h-96l20 139h-88v149zM229 288h77l12 83h-78z" />
    <glyph glyph-name="dollar" unicode="$" 
d="M203 -7q-38 4 -67 11t-49 15q-24 9 -40 18v164q29 -16 62 -28q29 -11 66.5 -19t79.5 -8q13 0 29 3t29 9t22 16.5t9 25.5q0 23 -23 38.5t-57 29t-74 29t-74 39.5t-57 59.5t-23 89.5q0 42 12.5 75t35 57.5t53 41t66.5 24.5v91h138v-86q61 -8 94.5 -20.5t32.5 -12.5v-154
q-26 10 -56 18q-26 7 -60.5 12.5t-75.5 5.5q-12 0 -25 -3t-23.5 -9t-17.5 -15t-7 -22q0 -18 23.5 -30t58.5 -25.5t76 -30t76 -42t58.5 -63.5t23.5 -94q0 -35 -11 -67.5t-33.5 -59.5t-55.5 -47t-78 -30v-105h-138v99z" />
    <glyph glyph-name="percent" unicode="%" horiz-adv-x="885" 
d="M219 354q-36 0 -66.5 13t-53.5 36t-36 54t-13 66t13.5 66t36.5 54t53.5 36t65.5 13t66 -13t54 -36t36.5 -54t13.5 -66t-13 -66t-36 -54t-54 -36t-67 -13zM219 580q-23 0 -39.5 -16t-16.5 -41q0 -23 16.5 -40t39.5 -17q24 0 40 16.5t16 40.5q0 25 -16 41t-40 16zM665 -10
q-36 0 -66.5 13t-53.5 36t-36 54t-13 66t13.5 66t36.5 54t53.5 36t65.5 13t66 -13t54 -36t36.5 -54t13.5 -66t-13 -66t-36 -54t-54 -36t-67 -13zM665 216q-23 0 -39.5 -16t-16.5 -41q0 -23 16.5 -40t39.5 -17q24 0 40 16.5t16 40.5q0 25 -16 41t-40 16zM572 692h128
l-387 -702h-129z" />
    <glyph glyph-name="ampersand" unicode="&#x26;" horiz-adv-x="680" 
d="M480 514q-25 11 -51 21q-23 8 -49 14.5t-52 6.5q-29 0 -50 -11t-21 -32q0 -22 21.5 -46.5t45.5 -52.5l153 -177q0 11 1 22q0 9 0.5 20t0.5 21h146q0 -39 -7.5 -85.5t-33.5 -87.5q8 -10 19.5 -22t22.5 -23q12 -12 24 -25l-113 -98l-63 69q-17 -11 -41 -19
q-20 -8 -50.5 -13.5t-70.5 -5.5q-59 0 -106.5 18.5t-81 50t-51.5 73t-18 87.5q0 44 12.5 78t27.5 57q18 27 41 47q-11 12 -20 29q-8 14 -13.5 34.5t-5.5 48.5q0 38 17 71t47 57t71.5 38t90.5 14q35 0 64.5 -5t49.5 -11q24 -7 43 -16v-147zM321 131q11 0 20.5 1t16.5 3
q8 2 14 4l-143 156q-6 -9 -13 -24t-7 -38q0 -18 7 -36t21 -32.5t35 -24t49 -9.5z" />
    <glyph glyph-name="quotesingle" unicode="'" horiz-adv-x="248" 
d="M60 720h148l-43 -279h-105v279z" />
    <glyph glyph-name="parenleft" unicode="(" horiz-adv-x="346" 
d="M346 664q-41 -65 -67 -122t-41 -107.5t-20.5 -94t-5.5 -82.5t5.5 -82.5t20 -94t40.5 -107.5t68 -123l-115 -72q-50 68 -83 131.5t-52.5 123t-27.5 115.5t-8 109q0 55 8 111t28 114.5t52.5 120.5t82.5 128z" />
    <glyph glyph-name="parenright" unicode=")" horiz-adv-x="346" 
d="M0 -153q41 65 67 122t41 107t20.5 94t5.5 83t-5.5 82.5t-20 94t-40.5 107.5t-68 123l115 72q50 -68 83 -131.5t52.5 -123t27.5 -115.5t8 -109q0 -55 -8 -111t-28 -114.5t-53 -120.5t-82 -128z" />
    <glyph glyph-name="asterisk" unicode="*" horiz-adv-x="512" 
d="M407 622q29 0 47 -21t18 -47q0 -28 -14 -45t-39 -22l-71 -14l49 -49q18 -18 18 -45q0 -29 -19.5 -48t-48.5 -19q-19 0 -34 7.5t-24 24.5l-33 62l-33 -62q-9 -17 -24 -24.5t-34 -7.5q-29 0 -48.5 19t-19.5 48q0 27 19 46l49 48l-71 14q-25 5 -39.5 21.5t-14.5 45.5
t18.5 48.5t46.5 19.5q16 0 34 -9l60 -31l-8 59q-1 5 -1.5 11.5t-0.5 14.5q0 28 20 45.5t47 17.5t47 -18.5t20 -45.5q0 -6 -0.5 -13t-1.5 -12l-8 -59l59 31q16 9 35 9z" />
    <glyph glyph-name="plus" unicode="+" 
d="M342 542v-148h148v-137h-148v-148h-137v148h-145v137h145v148h137z" />
    <glyph glyph-name="comma" unicode="," horiz-adv-x="325" 
d="M255 169v-176l-105 -170l-80 45l61 121v11h-46v169h170z" />
    <glyph glyph-name="hyphen" unicode="-" horiz-adv-x="405" 
d="M345 192h-285v144h285v-144z" />
    <glyph glyph-name="period" unicode="." horiz-adv-x="310" 
d="M240 169v-169h-170v169h170z" />
    <glyph glyph-name="slash" unicode="/" horiz-adv-x="368" 
d="M220 693h138l-210 -703h-138z" />
    <glyph glyph-name="zero" unicode="0" 
d="M518 342q0 -80 -18.5 -144.5t-50.5 -110.5t-77 -71t-97 -25q-53 0 -97.5 25t-76.5 71t-50.5 110.5t-18.5 144.5q0 79 18.5 143.5t50.5 110.5t76.5 71.5t97.5 25.5q52 0 97 -25.5t77 -71.5t50.5 -110.5t18.5 -143.5zM354 342q0 89 -22 141t-57 52t-57.5 -52t-22.5 -141
q0 -91 22.5 -142t57.5 -51t57 51t22 142z" />
    <glyph glyph-name="one" unicode="1" 
d="M70 155h145v344l-128 -63v167l155 79h137v-527h138v-155h-447v155z" />
    <glyph glyph-name="two" unicode="2" 
d="M505 0h-479q53 73 104.5 142t91.5 129t64.5 109t24.5 82q0 35 -18 54.5t-57 19.5q-25 0 -55.5 -11t-56.5 -24q-32 -16 -63 -35v164q27 17 60 31q28 12 64.5 22t77.5 10q50 0 90.5 -15t68.5 -43t43 -66.5t15 -84.5q0 -39 -9.5 -74.5t-28.5 -73.5t-47.5 -82t-65.5 -99h176
v-155z" />
    <glyph glyph-name="three" unicode="3" 
d="M87 647q27 12 58 23q26 8 61 15.5t73 7.5q49 0 87.5 -15t65.5 -40.5t41.5 -60t14.5 -73.5q0 -35 -9.5 -61t-20.5 -44q-13 -21 -29 -36q20 -15 37 -37q14 -19 25.5 -48t11.5 -67q0 -50 -17.5 -90.5t-49 -69t-75.5 -44.5t-98 -16q-45 0 -80 7.5t-61 16.5q-30 11 -54 24v165
q24 -17 51 -30q23 -11 54.5 -20t66.5 -9q47 0 70 22.5t23 48.5q0 65 -131 65v144q61 0 90 17t29 47q0 20 -18 36t-56 16q-29 0 -57.5 -8t-51.5 -17q-26 -11 -51 -24v155z" />
    <glyph glyph-name="four" unicode="4" 
d="M473 395v-96h50v-151h-50v-148h-157v148h-311l236 534h177l-176 -383h74l4 96h153z" />
    <glyph glyph-name="five" unicode="5" 
d="M475 529h-203l-8 -77q58 0 103 -18.5t76 -49.5t47 -71.5t16 -84.5q0 -53 -18.5 -96.5t-51.5 -75t-79.5 -49t-101.5 -17.5q-39 0 -73.5 7.5t-60.5 16.5q-31 11 -56 25v165q23 -17 52 -30q25 -11 58 -20t74 -9t65 23.5t24 55.5q0 38 -29 58.5t-80 20.5q-23 0 -48.5 -2.5
t-47.5 -4.5q-26 -3 -50 -6l44 392h348v-153z" />
    <glyph glyph-name="six" unicode="6" 
d="M445 578q-63 -36 -109 -79t-71 -85q6 2 13 4q6 2 14.5 3t19.5 1q42 0 78.5 -16.5t63 -45t42 -66.5t15.5 -82q0 -46 -17 -86.5t-47 -70.5t-71 -47.5t-88 -17.5q-51 0 -93.5 17.5t-73 50.5t-47.5 79.5t-17 103.5q0 64 21 128t60 124t95 114t127 96zM284 295
q-15 0 -26.5 -2.5t-19.5 -5.5q-10 -4 -16 -7q-2 -6 -3 -14q-3 -14 -3 -35q0 -42 20.5 -66.5t52.5 -24.5q30 0 50.5 22t20.5 57q0 30 -20.5 53t-55.5 23z" />
    <glyph glyph-name="seven" unicode="7" 
d="M245 0h-177l238 530h-257v152h493z" />
    <glyph glyph-name="eight" unicode="8" 
d="M516 202q0 -45 -18.5 -84t-50.5 -67.5t-76 -44.5t-95 -16q-53 0 -97 16t-76.5 44.5t-50.5 67.5t-18 84q0 38 10.5 66.5t24.5 47.5q16 22 36 37q-16 14 -28 33q-11 17 -19.5 41t-8.5 58q0 47 17.5 85.5t48 65.5t72 42t89.5 15q47 0 88 -15t71 -42t47.5 -65.5t17.5 -85.5
q0 -34 -8.5 -58t-19.5 -41q-12 -19 -27 -33q19 -15 35 -37q14 -19 25 -47.5t11 -66.5zM344 485q0 28 -19.5 45.5t-48.5 17.5q-30 0 -50 -17.5t-20 -45.5q0 -26 20 -44t50 -18q29 0 48.5 18t19.5 44zM361 209q0 30 -25 49t-60 19q-38 0 -62.5 -19t-24.5 -49t24.5 -49.5
t62.5 -19.5q36 0 60.5 19.5t24.5 49.5z" />
    <glyph glyph-name="nine" unicode="9" 
d="M107 105q63 36 109 79t71 85q-6 -2 -13 -4q-6 -2 -15 -3t-19 -1q-42 0 -78.5 16.5t-63 45t-42 66.5t-15.5 82q0 46 17 86.5t47 70.5t71 47.5t88 17.5q51 0 93.5 -17.5t73 -50.5t47.5 -79.5t17 -103.5q0 -64 -21 -128t-60 -124t-95.5 -114t-126.5 -96zM268 388
q15 0 26.5 2t19.5 5q9 4 16 8q1 6 3 14q1 7 2 15.5t1 19.5q0 42 -20.5 66.5t-52.5 24.5q-30 0 -50.5 -22t-20.5 -57q0 -30 20.5 -53t55.5 -23z" />
    <glyph glyph-name="colon" unicode=":" horiz-adv-x="310" 
d="M240 169v-169h-170v169h170zM240 478v-169h-170v169h170z" />
    <glyph glyph-name="semicolon" unicode=";" horiz-adv-x="310" 
d="M240 478v-169h-170v169h170zM240 169v-176l-105 -170l-80 45l61 121v11h-46v169h170z" />
    <glyph glyph-name="less" unicode="&#x3c;" 
d="M247 325l243 -100v-152l-430 201v104l430 200v-151z" />
    <glyph glyph-name="equal" unicode="=" 
d="M490 507v-137h-430v137h430zM490 281v-137h-430v137h430z" />
    <glyph glyph-name="greater" unicode="&#x3e;" 
d="M60 427v151l430 -200v-104l-430 -201v152l243 100z" />
    <glyph glyph-name="question" unicode="?" horiz-adv-x="469" 
d="M126 242q-2 15 -3 30q-1 13 -1.5 26t-0.5 22q0 38 20.5 67.5t45.5 55t45.5 48t20.5 45.5q0 14 -10.5 26t-45.5 12q-25 0 -50.5 -8.5t-47.5 -18.5q-26 -11 -49 -26v161q28 12 58 23q26 9 57 16.5t62 7.5q51 0 88.5 -14.5t63 -39t38 -56.5t12.5 -67q0 -51 -20.5 -88.5
t-46 -65.5t-49.5 -49t-30 -40q-3 -9 -5 -20.5t-3 -22.5q-2 -12 -2 -24h-147zM284 169v-169h-170v169h170z" />
    <glyph glyph-name="at" unicode="@" horiz-adv-x="1046" 
d="M691 159q23 0 50 8t50.5 27.5t39 52.5t15.5 83q0 56 -24.5 105t-66.5 86t-97.5 58t-118.5 21q-70 0 -132 -26.5t-108 -72t-72.5 -107.5t-26.5 -134q0 -71 26 -133.5t71 -108.5t106.5 -72.5t132.5 -26.5q57 0 109.5 15t92.5 34q47 22 87 50v-144q-37 -23 -83 -41
q-40 -16 -94.5 -28.5t-120.5 -12.5q-96 0 -180 36.5t-146.5 99.5t-99 148.5t-36.5 183.5q0 100 38 185.5t102.5 148.5t150.5 99t183 36q91 0 171.5 -31t140.5 -85t95 -126.5t35 -156.5q0 -73 -27.5 -128t-74.5 -92t-109 -56t-130 -19h-70l-5 37q-16 -12 -34 -22
q-16 -8 -36.5 -15t-43.5 -7q-32 0 -60 14t-49 39.5t-33.5 62t-12.5 81.5t16 89.5t45 80t70.5 57t91.5 21.5q28 0 47 -7.5t32 -16.5q14 -11 24 -24l10 41h123zM483 151q24 0 43.5 12.5t33 32t21 43t7.5 45.5q0 32 -16 50t-42 18q-24 0 -43 -11t-32.5 -29t-20.5 -40.5
t-7 -45.5q0 -33 15 -54t41 -21z" />
    <glyph glyph-name="A" unicode="A" horiz-adv-x="689" 
d="M454 97h-222l-35 -97h-187l334 728l335 -728h-190zM277 219h130l-64 186z" />
    <glyph glyph-name="B" unicode="B" horiz-adv-x="659" 
d="M609 206q0 -47 -16.5 -85t-47 -65t-75 -41.5t-100.5 -14.5h-285v682h261q118 0 180.5 -52t62.5 -140q0 -32 -10 -56.5t-22 -40.5q-14 -19 -32 -32q24 -15 42 -37q16 -19 29 -48t13 -70zM442 215q0 26 -20 42.5t-70 16.5h-102v-120h110q41 0 61.5 17.5t20.5 43.5zM250 415
h97q32 0 53.5 15t21.5 44q0 26 -18 40t-50 14h-104v-113z" />
    <glyph glyph-name="C" unicode="C" horiz-adv-x="632" 
d="M580 488q-23 12 -50 23q-24 8 -56.5 15.5t-72.5 7.5q-43 0 -79 -15.5t-62 -41.5t-40.5 -61t-14.5 -75t14.5 -75t40.5 -61.5t62 -41.5t79 -15q45 0 80.5 9.5t60.5 21.5q29 13 50 31v-168q-24 -15 -54 -26q-26 -10 -62 -18t-81 -8q-76 0 -141 27t-112.5 74.5t-74.5 111.5
t-27 139q0 73 27.5 137t75.5 111t113 74.5t139 27.5q45 0 79 -6t58 -14q27 -9 48 -20v-164z" />
    <glyph glyph-name="D" unicode="D" horiz-adv-x="699" 
d="M85 0v682h216q85 0 152 -25.5t112.5 -70.5t69.5 -107.5t24 -137.5q0 -74 -24 -136.5t-69.5 -108t-112.5 -71t-152 -25.5h-216zM250 155h55q47 0 82.5 14.5t59 39.5t35.5 59t12 73q0 40 -12 74t-35.5 59t-59 39t-82.5 14h-55v-372z" />
    <glyph glyph-name="E" unicode="E" horiz-adv-x="645" 
d="M585 0h-500v682h494v-155h-329v-107h280v-152h-280v-113h335v-155z" />
    <glyph glyph-name="F" unicode="F" horiz-adv-x="579" 
d="M251 256v-256h-166v682h454v-155h-288v-119h261v-152h-261z" />
    <glyph glyph-name="G" unicode="G" horiz-adv-x="743" 
d="M368 377h315v-289q-32 -28 -75 -49q-37 -19 -91.5 -34t-124.5 -15q-75 0 -139.5 27.5t-111.5 75.5t-74 112t-27 137t27.5 136.5t75.5 111t112.5 74.5t138.5 27q57 0 102.5 -8.5t77.5 -19.5q38 -12 66 -28v-167q-30 18 -66 33q-31 12 -73 22.5t-92 10.5q-46 0 -83.5 -15
t-64 -41.5t-41 -61.5t-14.5 -74t13.5 -74.5t39 -62.5t61.5 -42.5t80 -15.5q32 0 55 4t40 9q18 6 33 14v67h-160v136z" />
    <glyph glyph-name="H" unicode="H" horiz-adv-x="746" 
d="M495 682h166v-682h-166v266h-245v-266h-165v682h165v-261h245v261z" />
    <glyph glyph-name="I" unicode="I" horiz-adv-x="348" 
d="M258 682v-682h-168v682h168z" />
    <glyph glyph-name="J" unicode="J" horiz-adv-x="374" 
d="M129 682h165v-497q0 -87 -50 -136t-135 -49h-69v151h44q20 0 32.5 11.5t12.5 34.5v485z" />
    <glyph glyph-name="K" unicode="K" horiz-adv-x="664" 
d="M659 0h-213l-182 250l-14 -16v-234h-165v682h165v-230l183 230h203l-266 -308z" />
    <glyph glyph-name="L" unicode="L" horiz-adv-x="573" 
d="M553 155v-155h-468v682h165v-527h303z" />
    <glyph glyph-name="M" unicode="M" horiz-adv-x="860" 
d="M775 719v-719h-166v369l-179 -173l-179 172v-368h-166v719l345 -317z" />
    <glyph glyph-name="N" unicode="N" horiz-adv-x="747" 
d="M250 347v-347h-165v720l412 -390v352h165v-721z" />
    <glyph glyph-name="O" unicode="O" horiz-adv-x="789" 
d="M40 342q0 73 27.5 137t75.5 111t112.5 74.5t138.5 27.5t139 -27.5t113 -74.5t75.5 -111t27.5 -137t-27.5 -137t-75.5 -112t-113 -75.5t-139 -27.5t-138.5 27.5t-112.5 75.5t-75.5 112t-27.5 137zM205 342q0 -39 15 -74.5t40.5 -62t60 -42t73.5 -15.5t73.5 15.5t60.5 42
t41 62t15 74.5t-15 74t-41 61.5t-60.5 41.5t-73.5 15t-73.5 -15t-60 -41.5t-40.5 -61.5t-15 -74z" />
    <glyph glyph-name="P" unicode="P" horiz-adv-x="618" 
d="M589 454q0 -46 -16 -87.5t-46 -73t-74 -50t-100 -18.5h-103v-225h-165v682h268q57 0 101 -18.5t74 -50t45.5 -73t15.5 -86.5zM250 378h93q41 0 61 22t20 53q0 29 -20 52t-60 23h-94v-150z" />
    <glyph glyph-name="Q" unicode="Q" horiz-adv-x="789" 
d="M390 -10q-73 1 -136.5 28.5t-111 75.5t-75 111.5t-27.5 136.5t27.5 137t75.5 111t112.5 74.5t138.5 27.5t139 -27.5t113 -74.5t75.5 -111t27.5 -137q0 -93 -43.5 -169.5t-115.5 -124.5l148 -74v-177zM205 342q0 -39 15 -74.5t40.5 -62t60 -42t73.5 -15.5t73.5 15.5
t60.5 42t41 62t15 74.5t-15 74t-41 61.5t-60.5 41.5t-73.5 15t-73.5 -15t-60 -41.5t-40.5 -61.5t-15 -74z" />
    <glyph glyph-name="R" unicode="R" horiz-adv-x="663" 
d="M250 302v-302h-165v682h267q58 0 102 -17t74 -46.5t45.5 -68.5t15.5 -84q0 -35 -10.5 -66t-28 -56.5t-41.5 -44.5t-51 -31l195 -268h-203zM250 378h91q21 0 36 7t25 17.5t15 24t5 26.5t-5 26.5t-14.5 24t-25 17.5t-36.5 7h-91v-150z" />
    <glyph glyph-name="S" unicode="S" horiz-adv-x="595" 
d="M500 488q-26 14 -58 25q-27 10 -62.5 18t-76.5 8q-33 0 -54.5 -12t-21.5 -34q0 -20 24 -33t60.5 -26.5t79 -30t79 -42t61 -64t24.5 -94.5q0 -43 -18.5 -81.5t-53.5 -68t-85.5 -46.5t-115.5 -17q-48 0 -88.5 8t-70.5 18q-35 11 -63 27v167q30 -19 65 -33q30 -13 70 -23
t87 -10q17 0 34.5 3t31.5 10t23 17.5t9 25.5q0 23 -23.5 38.5t-59.5 29t-77 29t-77 40t-59.5 60t-23.5 90.5q0 52 20.5 90.5t55 64t78.5 38t92 12.5q43 0 79 -6.5t62 -14.5q30 -10 54 -21z" />
    <glyph glyph-name="T" unicode="T" horiz-adv-x="559" 
d="M362 527v-527h-165v527h-177v155h519v-155h-177z" />
    <glyph glyph-name="U" unicode="U" horiz-adv-x="731" 
d="M240 278q0 -29 10 -53t27 -41t40 -26t49 -9q25 0 48 9t39.5 26t26.5 41t10 53v404h166v-397q0 -78 -26.5 -133.5t-68 -91.5t-93 -53t-102.5 -17q-53 0 -105 17t-93.5 53t-67 92t-25.5 133v397h165v-404z" />
    <glyph glyph-name="V" unicode="V" horiz-adv-x="689" 
d="M492 682h187l-334 -728l-335 728h190l146 -375z" />
    <glyph glyph-name="W" unicode="W" horiz-adv-x="1044" 
d="M522 695l193 -381l120 368h189l-281 -727l-221 420l-221 -421l-281 728h188l121 -369z" />
    <glyph glyph-name="X" unicode="X" horiz-adv-x="693" 
d="M250 353l-216 329h196l117 -200l115 200h197l-216 -329l230 -353h-196l-130 221l-132 -221h-195z" />
    <glyph glyph-name="Y" unicode="Y" horiz-adv-x="659" 
d="M247 271l-237 411h185l135 -278l134 278h185l-237 -411v-271h-165v271z" />
    <glyph glyph-name="Z" unicode="Z" horiz-adv-x="633" 
d="M581 0h-551l304 527h-274v155h548l-303 -527h276v-155z" />
    <glyph glyph-name="bracketleft" unicode="[" horiz-adv-x="351" 
d="M331 -200h-241v882h241v-137h-89v-608h89v-137z" />
    <glyph glyph-name="backslash" unicode="\" horiz-adv-x="368" 
d="M358 -10h-138l-210 703h138z" />
    <glyph glyph-name="bracketright" unicode="]" horiz-adv-x="351" 
d="M20 -63h89v608h-89v137h241v-882h-241v137z" />
    <glyph glyph-name="asciicircum" unicode="^" horiz-adv-x="522" 
d="M492 295h-156l-75 198l-74 -198h-157l176 386h110z" />
    <glyph glyph-name="underscore" unicode="_" horiz-adv-x="488" 
d="M493 -189h-498v114h498v-114z" />
    <glyph glyph-name="grave" unicode="`" horiz-adv-x="273" 
d="M70 734l203 -122l-45 -97l-228 92z" />
    <glyph glyph-name="a" unicode="a" horiz-adv-x="616" 
d="M541 0h-145l-8 51q-11 -18 -29 -31q-15 -11 -39.5 -20.5t-60.5 -9.5q-44 0 -84 19t-70 52.5t-47.5 79t-17.5 98.5q0 54 18 99.5t48 78.5t69.5 52t83.5 19q35 0 59 -9.5t40 -20.5q18 -13 30 -29l3 49h150v-478zM296 343q-46 0 -73.5 -30.5t-27.5 -73.5q0 -21 7 -40
t20.5 -33.5t32 -23t41.5 -8.5t39 7.5t27 16.5q12 11 20 24v113q-8 13 -20 24q-11 9 -27 16.5t-39 7.5z" />
    <glyph glyph-name="b" unicode="b" horiz-adv-x="615" 
d="M75 0v720h159v-284q11 15 29 26q15 10 38.5 18t55.5 8q44 0 83.5 -19t69.5 -52t47.5 -78.5t17.5 -99.5q0 -53 -17.5 -98.5t-47.5 -79t-69.5 -52.5t-83.5 -19q-36 0 -61 9.5t-40 20.5q-18 13 -28 31l-7 -51h-146zM320 343q-23 0 -39 -7.5t-27 -16.5q-12 -11 -20 -24v-113
q8 -13 20 -24q11 -9 27 -16.5t39 -7.5t41.5 8.5t32 23t20.5 33.5t7 40q0 43 -27.5 73.5t-73.5 30.5z" />
    <glyph glyph-name="c" unicode="c" horiz-adv-x="487" 
d="M432 308q-17 9 -36 17q-17 7 -39 12.5t-48 5.5t-47 -8.5t-35.5 -23t-22.5 -33t-8 -38.5q0 -43 30.5 -74t82.5 -31q31 0 54.5 5.5t40.5 12.5q19 8 33 19v-148q-19 -10 -41 -17q-20 -7 -45.5 -12t-56.5 -5q-55 0 -101.5 19t-80.5 52.5t-53 79.5t-19 99q0 52 20 97
t54.5 78.5t80.5 53t99 19.5q29 0 54 -5t44 -10q22 -7 40 -15v-150z" />
    <glyph glyph-name="d" unicode="d" horiz-adv-x="615" 
d="M394 0l-7 51q-11 -18 -29 -31q-15 -11 -39.5 -20.5t-60.5 -9.5q-44 0 -83.5 19t-69.5 52.5t-47.5 79t-17.5 98.5q0 54 17.5 99.5t47.5 78.5t69.5 52t83.5 19q32 0 55.5 -8t38.5 -18q18 -11 29 -26v284h159v-720h-146zM295 343q-46 0 -73.5 -30.5t-27.5 -73.5q0 -21 7 -40
t20.5 -33.5t32 -23t41.5 -8.5t39 7.5t27 16.5q12 11 20 24v113q-8 13 -20 24q-11 9 -27 16.5t-39 7.5z" />
    <glyph glyph-name="e" unicode="e" horiz-adv-x="579" 
d="M208 192q8 -29 37.5 -50.5t74.5 -21.5q36 0 67.5 5t55.5 11q28 7 52 17v-126q-24 -11 -53 -19q-26 -7 -60.5 -12.5t-78.5 -5.5q-58 0 -106.5 19.5t-83 53.5t-54 79.5t-19.5 97.5t20.5 97t56 78.5t83.5 53t102 19.5q60 0 104.5 -21.5t74 -55t44 -74.5t14.5 -80
q0 -14 -1 -26.5t-2 -20.5l-3 -18h-325zM309 364q-38 0 -65.5 -24.5t-35.5 -56.5h197q-2 14 -9.5 28.5t-20 26t-29.5 19t-37 7.5z" />
    <glyph glyph-name="f" unicode="f" horiz-adv-x="364" 
d="M30 478h66v59q0 34 11 66.5t35.5 58.5t63 42t93.5 16h45v-128q-89 0 -89 -69v-45h89v-144h-89v-334h-159v334h-66v144z" />
    <glyph glyph-name="g" unicode="g" horiz-adv-x="611" 
d="M536 42q0 -63 -21.5 -110.5t-57 -79t-80.5 -47t-93 -15.5q-45 0 -80 7t-60 16q-29 10 -52 23l50 127q15 -11 34 -19q17 -8 40.5 -13.5t54.5 -5.5q59 0 85.5 32t26.5 107q-20 -26 -51 -42.5t-73 -16.5q-44 0 -83.5 17.5t-69.5 49t-48 75t-18 96.5q0 55 17.5 100t47.5 77
t70 50t84 18q32 0 55 -9t39 -20q18 -12 31 -28l6 47h146v-436zM294 342q-46 0 -73 -28.5t-27 -71.5q0 -42 27 -72.5t73 -30.5q22 0 37 7.5t26 16.5q11 11 20 24v110q-9 12 -20 22q-11 8 -26 15.5t-37 7.5z" />
    <glyph glyph-name="h" unicode="h" horiz-adv-x="619" 
d="M549 0h-159v275q0 29 -15 49t-50 20q-20 0 -36.5 -7t-28.5 -15q-14 -10 -26 -21v-301h-159v720h159v-273q15 11 34 20q17 8 39 14t50 6q37 0 72 -12.5t61.5 -38t42.5 -63.5t16 -90v-283z" />
    <glyph glyph-name="i" unicode="i" horiz-adv-x="315" 
d="M237 478v-478h-160v478h160zM75 681h165v-136h-165v136z" />
    <glyph glyph-name="j" unicode="j" horiz-adv-x="316" 
d="M238 -17q0 -34 -11 -66.5t-35.5 -58.5t-63 -42t-93.5 -16h-45v128q89 0 89 69v481h159v-495zM76 681h165v-136h-165v136z" />
    <glyph glyph-name="k" unicode="k" horiz-adv-x="562" 
d="M75 720h157v-379l119 137h201l-204 -212l214 -266h-195l-119 165l-16 -16v-149h-157v720z" />
    <glyph glyph-name="l" unicode="l" horiz-adv-x="319" 
d="M239 720v-720h-159v720h159z" />
    <glyph glyph-name="m" unicode="m" horiz-adv-x="866" 
d="M515 0h-159v282q0 59 -48 59q-14 0 -26.5 -6t-23.5 -13q-12 -8 -24 -18v-304h-159v478h150l7 -48q18 16 39 28q18 11 42 19.5t52 8.5q29 0 49.5 -9t34.5 -20q15 -13 25 -29q19 16 43 29q20 11 46.5 20t57.5 9q90 0 132.5 -52.5t42.5 -141.5v-292h-159v280q0 31 -13.5 46
t-33.5 15q-15 0 -28 -6t-24 -13q-12 -9 -23 -19v-303z" />
    <glyph glyph-name="n" unicode="n" horiz-adv-x="619" 
d="M549 0h-159v275q0 29 -15 49t-50 20q-20 0 -36.5 -7t-28.5 -15q-14 -10 -26 -21v-301h-159v478h152l6 -51q17 17 38 30q18 11 43 20.5t54 9.5q36 0 68.5 -12.5t57.5 -38t40 -63.5t15 -90v-283z" />
    <glyph glyph-name="o" unicode="o" horiz-adv-x="594" 
d="M554 239q0 -52 -20 -97.5t-55 -79t-82 -53t-100 -19.5q-54 0 -101 19.5t-81.5 53t-54.5 79t-20 97.5t20 97.5t55 79t81.5 53t100.5 19.5q53 0 99.5 -19.5t81.5 -53t55.5 -79t20.5 -97.5zM397 239q0 43 -28 74t-72 31t-71.5 -31t-27.5 -74q0 -21 7.5 -40t20.5 -33.5
t31 -23t40 -8.5t40 8.5t31.5 23t21 33.5t7.5 40z" />
    <glyph glyph-name="p" unicode="p" horiz-adv-x="611" 
d="M221 478l7 -51q10 17 28 30q15 11 40 21t61 10q44 0 83 -19t68 -52.5t46 -79t17 -98.5q0 -54 -17 -99.5t-46 -78.5t-68 -52t-83 -19q-32 0 -55.5 8t-38.5 18q-18 11 -29 26v-242h-159v678h146zM320 135q46 0 73.5 30.5t27.5 73.5q0 21 -7 40t-20.5 33.5t-32 23t-41.5 8.5
t-39 -7.5t-27 -16.5q-12 -11 -20 -24v-113q8 -13 20 -24q11 -9 27 -16.5t39 -7.5z" />
    <glyph glyph-name="q" unicode="q" horiz-adv-x="611" 
d="M536 478v-678h-159v242q-11 -15 -29 -26q-15 -10 -38.5 -18t-55.5 -8q-44 0 -83 19t-68 52t-46 78.5t-17 99.5q0 53 17 98.5t46 79t68 52.5t83 19q36 0 60.5 -10t39.5 -21q18 -13 29 -30l7 51h146zM291 135q23 0 39 7.5t27 16.5q12 11 20 24v113q-8 13 -20 24
q-11 9 -27 16.5t-39 7.5t-41.5 -8.5t-32 -23t-20.5 -33.5t-7 -40q0 -43 27.5 -73.5t73.5 -30.5z" />
    <glyph glyph-name="r" unicode="r" horiz-adv-x="437" 
d="M414 321q-11 3 -23 7q-11 3 -26 5.5t-33 2.5q-20 0 -38 -5.5t-31.5 -20.5t-21 -41.5t-7.5 -67.5v-201h-159v478h147l7 -59q13 18 31 33q15 13 37 23.5t51 10.5q15 0 28 -1.5t24 -3.5q11 -3 22 -5z" />
    <glyph glyph-name="s" unicode="s" horiz-adv-x="505" 
d="M428 321q-24 11 -52 20q-24 8 -55 14t-64 6q-20 0 -32 -7t-12 -21q0 -13 18.5 -20t46.5 -14t61 -15t61 -24t46.5 -41t18.5 -65q0 -35 -14 -64.5t-42.5 -52t-71 -35t-99.5 -12.5q-40 0 -73.5 6.5t-58.5 14.5q-29 10 -53 22v137q28 -16 59 -27q26 -10 60 -18t69 -8
q22 0 41.5 4.5t19.5 22.5q0 14 -18.5 21.5t-46.5 14.5t-61 15.5t-61 24.5t-46.5 42t-18.5 68q0 38 16.5 67.5t45 49.5t66.5 30.5t80 10.5q38 0 69 -5t54 -11q26 -7 48 -16z" />
    <glyph glyph-name="t" unicode="t" horiz-adv-x="381" 
d="M99 334h-69v144h69v105h159v-105h103v-144h-103v-334h-159v334z" />
    <glyph glyph-name="u" unicode="u" horiz-adv-x="614" 
d="M65 478h159v-275q0 -29 15 -49t50 -20q20 0 36.5 6.5t28.5 14.5q14 10 26 22v301h159v-478h-152l-6 51q-17 -17 -38 -30q-18 -11 -43 -20.5t-54 -9.5q-36 0 -68.5 12.5t-57.5 38t-40 63.5t-15 90v283z" />
    <glyph glyph-name="v" unicode="v" horiz-adv-x="562" 
d="M10 478h172l99 -246l99 246h172l-271 -517z" />
    <glyph glyph-name="w" unicode="w" horiz-adv-x="812" 
d="M544 230l86 248h172l-235 -530l-162 275l-160 -275l-235 530h172l86 -248l137 269z" />
    <glyph glyph-name="x" unicode="x" horiz-adv-x="560" 
d="M189 244l-162 234h180l73 -119l73 119h181l-163 -234l169 -244h-179l-81 127l-81 -127h-179z" />
    <glyph glyph-name="y" unicode="y" horiz-adv-x="576" 
d="M566 478l-302 -678h-161l108 238l-201 440h172l106 -270l115 270h163z" />
    <glyph glyph-name="z" unicode="z" horiz-adv-x="565" 
d="M508 0h-478l229 334h-194v144h470l-227 -334h200v-144z" />
    <glyph glyph-name="braceleft" unicode="{" horiz-adv-x="355" 
d="M335 -200h-108q-30 0 -55 11.5t-42 31t-26.5 46.5t-9.5 58v174q0 22 -20.5 37t-53.5 15v136q33 0 53.5 15.5t20.5 37.5v173q0 31 9.5 58t26.5 46.5t42 31t55 11.5h108v-137h-65q-26 0 -26 -29v-157q0 -26 -7.5 -48t-15.5 -37q-11 -18 -23 -32q12 -15 23 -33
q8 -16 15.5 -38t7.5 -48v-155q0 -31 26 -31h65v-137z" />
    <glyph glyph-name="bar" unicode="|" horiz-adv-x="320" 
d="M230 -209h-140v938h140v-938z" />
    <glyph glyph-name="braceright" unicode="}" horiz-adv-x="355" 
d="M20 -63h65q26 0 26 31v155q0 26 7 48t16 38q10 18 23 33q-13 14 -23 32q-9 15 -16 37t-7 48v157q0 29 -26 29h-65v137h108q30 0 55 -11.5t42 -31t26.5 -46.5t9.5 -58v-173q0 -22 20.5 -37.5t53.5 -15.5v-136q-33 0 -53.5 -15t-20.5 -37v-174q0 -31 -9.5 -58t-26.5 -46.5
t-42 -31t-55 -11.5h-108v137z" />
    <glyph glyph-name="asciitilde" unicode="~" horiz-adv-x="595" 
d="M60 309q17 16 38 29q17 11 41 20t52 9q27 0 56 -10.5t57.5 -23.5t55.5 -23.5t52 -10.5q21 0 43 9.5t40 20.5q21 13 40 30v-133q-19 -17 -39 -29q-18 -11 -40.5 -19.5t-48.5 -8.5q-27 0 -55.5 10.5t-57.5 23.5t-56.5 23.5t-52.5 10.5q-23 0 -46 -10t-40 -21
q-21 -13 -39 -30v133z" />
    <glyph glyph-name="uni00A0" unicode="&#xa0;" horiz-adv-x="260" 
 />
    <glyph glyph-name="exclamdown" unicode="&#xa1;" horiz-adv-x="350" 
d="M90 100l15 136h140l15 -136v-342h-170v342zM90 309v169h170v-169h-170z" />
    <glyph glyph-name="cent" unicode="&#xa2;" horiz-adv-x="483" 
d="M211 0q-40 11 -73 34t-57 54.5t-37.5 70t-13.5 81.5q0 42 13.5 80.5t38 69.5t58 54t72.5 34v95h138v-92q18 -4 34 -8t28 -8q14 -4 26 -9v-146q-21 9 -44 17q-20 6 -44.5 11.5t-50.5 5.5t-47 -9t-35.5 -23.5t-22.5 -33t-8 -38.5q0 -21 8 -40.5t22.5 -34.5t35.5 -23.5
t47 -8.5q31 0 57 5t46 12q23 7 41 17v-143q-13 -5 -28 -10q-13 -5 -29.5 -9.5t-36.5 -7.5v-103h-138v106z" />
    <glyph glyph-name="sterling" unicode="&#xa3;" 
d="M275 417h130v-149h-130v-63q0 -14 -2.5 -23.5t-4.5 -15.5q-3 -7 -6 -11h255v-155h-477v155q25 0 40 5.5t22.5 14.5t9.5 19t2 19v55h-74v149h74v81q0 48 17 84.5t46 61t67 36.5t81 12q34 0 64.5 -5.5t54.5 -11.5q27 -7 52 -16v-154q-25 9 -51 16q-23 6 -49 11t-51 5
q-34 0 -52 -13t-18 -44v-63z" />
    <glyph glyph-name="currency" unicode="&#xa4;" 
d="M460 344q24 -47 24 -99q0 -27 -7 -52t-17 -48l61 -61l-86 -85l-61 61q-23 -12 -48 -19t-54 -7q-53 0 -99 24l-60 -59l-85 85l60 60q-25 47 -25 101q0 53 25 101l-58 58l85 85l59 -59q23 12 48 19t51 7q53 0 100 -26l60 59l86 -86zM357 245q0 34 -24.5 57.5t-59.5 23.5
t-59.5 -23.5t-24.5 -57.5t24 -58t60 -24q18 0 33 6.5t26.5 17.5t18 26t6.5 32z" />
    <glyph glyph-name="yen" unicode="&#xa5;" 
d="M66 386h85l-140 296h165l99 -245l99 245h165l-140 -296h85v-117h-128v-54h128v-117h-128v-98h-162v98h-128v117h128v54h-128v117z" />
    <glyph glyph-name="brokenbar" unicode="&#xa6;" horiz-adv-x="320" 
d="M230 307h-140v374h140v-374zM230 -200h-140v376h140v-376z" />
    <glyph glyph-name="section" unicode="&#xa7;" horiz-adv-x="593" 
d="M533 251q0 -25 -9.5 -48t-20.5 -42q-13 -22 -29 -41q7 -8 15.5 -19t16 -25.5t12.5 -33.5t5 -41q0 -40 -19 -74t-51.5 -59t-76.5 -39t-95 -14q-39 0 -74 7t-61 16q-31 11 -57 24v159q30 -17 63 -29q28 -11 61 -19.5t65 -8.5q37 0 61.5 10.5t24.5 31.5q0 16 -22.5 27.5
t-56.5 23t-73 26t-73 37t-56.5 56t-22.5 83.5q0 23 9 46.5t20 41.5q13 21 30 41q-15 14 -32 43.5t-17 76.5q0 40 19 73.5t51.5 58.5t77 39t95.5 14q38 0 73 -7.5t61 -16.5q31 -11 57 -23v-160q-31 16 -63 29q-28 11 -60.5 20t-64.5 9q-38 0 -62.5 -10.5t-24.5 -30.5
q0 -16 22.5 -27.5t56.5 -23.5t73 -27t73 -37.5t56.5 -55.5t22.5 -81zM380 232q0 14 -12 26t-32 23.5t-47.5 22t-57.5 21.5q-9 -11 -13 -24t-4 -27q0 -25 40 -45.5t108 -45.5q10 11 14 24.5t4 24.5z" />
    <glyph glyph-name="dieresis" unicode="&#xa8;" horiz-adv-x="363" 
d="M0 551v131h131v-131h-131zM232 551v131h131v-131h-131z" />
    <glyph glyph-name="copyright" unicode="&#xa9;" horiz-adv-x="825" 
d="M521 394q-14 7 -30 13q-14 5 -31.5 9.5t-36.5 4.5q-32 0 -52.5 -23.5t-20.5 -58.5t19 -58.5t54 -23.5q21 0 39.5 4.5t32.5 9.5q17 6 31 15v-105q-11 -9 -27 -15q-14 -5 -34.5 -9.5t-46.5 -4.5q-39 0 -71.5 14.5t-56 40t-36.5 59.5t-13 73t13.5 73t38 59t58 39.5
t72.5 14.5q22 0 39.5 -3.5t31.5 -8.5q15 -5 28 -12zM765 341q0 -72 -28 -136.5t-76 -112.5t-112 -76t-137 -28q-72 0 -136 28t-112 76t-76 112.5t-28 136.5q0 73 28 137.5t76 112.5t112 75.5t136 27.5t136.5 -27.5t112.5 -75.5t76 -112.5t28 -137.5zM166 341q0 -51 19.5 -96
t52.5 -78t78 -52.5t96 -19.5t96 19.5t78 52.5t52.5 78t19.5 96t-19.5 96t-52.5 78t-78 52.5t-96 19.5t-96 -19.5t-78 -52.5t-52.5 -78t-19.5 -96z" />
    <glyph glyph-name="ordfeminine" unicode="&#xaa;" horiz-adv-x="381" 
d="M351 367h-113l-4 19q-8 -7 -19 -12q-9 -5 -22 -8.5t-29 -3.5q-28 0 -52.5 12.5t-42.5 34.5t-28.5 51.5t-10.5 63.5t10.5 64t28.5 52t42.5 34.5t52.5 12.5q17 0 30 -4t22 -9q11 -6 18 -13l4 21h113v-315zM194 579q-21 0 -34 -16t-13 -39q0 -21 13 -38t33 -17q8 0 15 2
t12 4q5 3 10 7v85q-4 3 -9 6q-5 2 -11.5 4t-15.5 2zM57 306h294v-110h-294v110z" />
    <glyph glyph-name="guillemotleft" unicode="&#xab;" horiz-adv-x="643" 
d="M339 19h-157l-142 216l142 216h157l-139 -216zM603 19h-157l-142 216l142 216h157l-139 -216z" />
    <glyph glyph-name="logicalnot" unicode="&#xac;" 
d="M490 442v-274h-137v138h-293v136h430z" />
    <glyph glyph-name="uni00AD" unicode="&#xad;" horiz-adv-x="405" 
d="M345 192h-285v144h285v-144z" />
    <glyph glyph-name="registered" unicode="&#xae;" horiz-adv-x="825" 
d="M566 164h-115l-42 111h-18v-111h-109v355h126q73 0 112.5 -30t39.5 -91q0 -32 -16 -58t-44 -43zM458 402q0 20 -13 26.5t-35 6.5h-19v-67h30q11 0 24 7t13 27zM765 341q0 -72 -28 -136.5t-76 -112.5t-112 -76t-137 -28q-72 0 -136 28t-112 76t-76 112.5t-28 136.5
q0 73 28 137.5t76 112.5t112 75.5t136 27.5t136.5 -27.5t112.5 -75.5t76 -112.5t28 -137.5zM166 341q0 -51 19.5 -96t52.5 -78t78 -52.5t96 -19.5t96 19.5t78 52.5t52.5 78t19.5 96t-19.5 96t-52.5 78t-78 52.5t-96 19.5t-96 -19.5t-78 -52.5t-52.5 -78t-19.5 -96z" />
    <glyph glyph-name="macron" unicode="&#xaf;" horiz-adv-x="254" 
d="M0 682h254v-131h-254v131z" />
    <glyph glyph-name="degree" unicode="&#xb0;" horiz-adv-x="369" 
d="M339 572q0 -32 -12 -60t-33 -49t-49.5 -33t-60.5 -12t-60 12t-49 33t-33 49t-12 60t12 60t33 49t49 33t60 12t60.5 -12t49.5 -33t33 -49t12 -60zM127 573q0 -23 17 -40t40 -17t40 17t17 40t-17 40t-40 17t-40 -17t-17 -40z" />
    <glyph glyph-name="plusminus" unicode="&#xb1;" 
d="M490 137v-137h-429v137h429zM342 590v-133h148v-137h-148v-133h-137v133h-145v137h145v133h137z" />
    <glyph glyph-name="uni00B2" unicode="&#xb2;" horiz-adv-x="386" 
d="M346 445h-306l73 104q43 61 69 102t26 65q0 33 -32 33q-16 0 -34 -7.5t-35 -16.5q-19 -11 -39 -23v126q20 11 42 20q19 8 42.5 14t47.5 6q60 0 97.5 -34.5t37.5 -97.5q0 -20 -4.5 -39t-14 -39t-23.5 -43t-32 -51h85v-119z" />
    <glyph glyph-name="uni00B3" unicode="&#xb3;" horiz-adv-x="363" 
d="M50 834q17 9 38 16q18 6 41.5 11t50.5 5q30 0 54.5 -9.5t42 -26t27 -38.5t9.5 -48q0 -20 -5 -34.5t-11 -24.5q-7 -11 -15 -19q11 -9 20 -21q8 -11 14.5 -27t6.5 -39q0 -30 -11 -55.5t-30.5 -44t-48 -29t-62.5 -10.5q-30 0 -54.5 5t-41.5 11q-20 7 -35 16v114
q17 -10 35 -18q16 -7 37 -12.5t44 -5.5q22 0 32 10t10 20q0 14 -16 23.5t-59 9.5v81q21 0 34.5 3t21 8.5t10 11.5t2.5 12q0 10 -7 19.5t-30 9.5q-18 0 -36.5 -5.5t-33.5 -11.5q-18 -8 -34 -17v110z" />
    <glyph glyph-name="acute" unicode="&#xb4;" horiz-adv-x="273" 
d="M273 607l-228 -92l-45 97l203 122z" />
    <glyph glyph-name="mu" unicode="&#xb5;" horiz-adv-x="624" 
d="M75 478h159v-270q0 -36 21.5 -55t53.5 -19q21 0 36 7.5t25 16.5q11 11 20 24v296h159v-478h-145l-6 50q-11 -17 -26 -30q-13 -11 -30.5 -20t-37.5 -9q-17 0 -30 4t-22 9q-11 6 -18 14v-218h-159v678z" />
    <glyph glyph-name="paragraph" unicode="&#xb6;" horiz-adv-x="688" 
d="M628 544h-47v-714h-128v714h-77v-714h-118v476h-41q-42 0 -76.5 15t-59 41t-38 60t-13.5 73q0 38 14 72t41.5 59.5t67 40.5t90.5 15h385v-138z" />
    <glyph glyph-name="periodcentered" unicode="&#xb7;" horiz-adv-x="310" 
d="M240 382v-169h-170v169h170z" />
    <glyph glyph-name="cedilla" unicode="&#xb8;" horiz-adv-x="212" 
d="M139 -37q20 -5 36 -16q14 -9 25.5 -24t11.5 -38q0 -25 -11 -43t-29 -29.5t-40 -17t-43 -5.5q-20 0 -36 3.5t-28 8.5q-14 5 -25 13v64q7 -4 16 -7q7 -2 16 -4t19 -2q17 0 27.5 6.5t10.5 17.5q0 14 -9 24.5t-20 16.5q-12 7 -28 12l20 57h99z" />
    <glyph glyph-name="uni00B9" unicode="&#xb9;" horiz-adv-x="273" 
d="M20 803l100 56h93v-414h-122v268l-71 -36v126z" />
    <glyph glyph-name="ordmasculine" unicode="&#xba;" horiz-adv-x="383" 
d="M353 528q0 -34 -12 -64t-33.5 -52.5t-51.5 -35.5t-65 -13q-34 0 -63.5 13t-51 35.5t-34 52.5t-12.5 64t12.5 64t34 52t51 35t63.5 13t63.5 -13t51.5 -35t34.5 -52t12.5 -64zM239 528q0 23 -12.5 39t-35.5 16q-20 0 -33.5 -16t-13.5 -39t12.5 -39t34.5 -16q23 0 35.5 16
t12.5 39zM48 306h287v-110h-287v110z" />
    <glyph glyph-name="guillemotright" unicode="&#xbb;" horiz-adv-x="643" 
d="M179 235l-139 216h157l142 -216l-142 -216h-157zM443 235l-139 216h157l142 -216l-142 -216h-157z" />
    <glyph glyph-name="onequarter" unicode="&#xbc;" horiz-adv-x="899" 
d="M548 693h131l-387 -703h-132zM50 626l100 56h93v-414h-122v268l-71 -36v126zM814 239v-58h35v-101h-35v-80h-121v80h-190l131 334h133l-91 -233h28l23 58h87z" />
    <glyph glyph-name="onehalf" unicode="&#xbd;" horiz-adv-x="891" 
d="M548 693h131l-387 -703h-132zM50 626l100 56h93v-414h-122v268l-71 -36v126zM841 0h-306l73 104q43 61 69 102t26 65q0 33 -32 33q-16 0 -34 -7.5t-35 -16.5q-19 -11 -39 -23v126q20 11 42 20q19 8 42.5 14t47.5 6q60 0 97.5 -34.5t37.5 -97.5q0 -20 -4.5 -39t-14 -39
t-23.5 -43t-32 -51h85v-119z" />
    <glyph glyph-name="threequarters" unicode="&#xbe;" horiz-adv-x="961" 
d="M610 693h131l-387 -703h-132zM876 239v-58h35v-101h-35v-80h-121v80h-190l131 334h133l-91 -233h28l23 58h87zM60 657q17 9 38 16q18 6 41.5 11t50.5 5q30 0 54.5 -9.5t42 -26t27 -38.5t9.5 -48q0 -20 -5 -34.5t-11 -24.5q-7 -11 -15 -19q11 -9 20 -21q8 -11 14.5 -27
t6.5 -39q0 -30 -11 -55.5t-30.5 -44t-48 -29t-62.5 -10.5q-30 0 -54.5 5t-41.5 11q-20 7 -35 16v114q17 -10 35 -18q16 -7 37 -12.5t44 -5.5q22 0 32 10t10 20q0 14 -16 23.5t-59 9.5v81q21 0 34.5 3t21 8.5t10 11.5t2.5 12q0 10 -7 19.5t-30 9.5q-18 0 -36.5 -5.5
t-33.5 -11.5q-18 -8 -34 -17v110z" />
    <glyph glyph-name="questiondown" unicode="&#xbf;" horiz-adv-x="469" 
d="M353 236l2 -30q1 -13 2 -26.5t1 -21.5q0 -38 -20.5 -67.5t-45.5 -55t-45.5 -48t-20.5 -45.5q0 -14 10.5 -26t45.5 -12q24 0 50 8t48 18q26 11 49 27v-161q-28 -13 -58 -24q-26 -9 -57.5 -16t-61.5 -7q-51 0 -88.5 14.5t-63 39t-38 56.5t-12.5 67q0 51 20.5 88.5t46 65.5
t49.5 49t30 40q3 9 4.5 20t3.5 22q1 12 2 25h147zM195 309v169h170v-169h-170z" />
    <glyph glyph-name="Agrave" unicode="&#xc0;" horiz-adv-x="689" 
d="M454 97h-222l-35 -97h-187l334 728l335 -728h-190zM277 219h130l-64 186zM278 938l203 -122l-45 -97l-228 92z" />
    <glyph glyph-name="Aacute" unicode="&#xc1;" horiz-adv-x="689" 
d="M454 97h-222l-35 -97h-187l334 728l335 -728h-190zM277 219h130l-64 186zM481 811l-228 -92l-45 97l203 122z" />
    <glyph glyph-name="Acircumflex" unicode="&#xc2;" horiz-adv-x="689" 
d="M454 97h-222l-35 -97h-187l334 728l335 -728h-190zM277 219h130l-64 186zM505 825l-48 -84l-113 59l-113 -59l-48 84l161 118z" />
    <glyph glyph-name="Atilde" unicode="&#xc3;" horiz-adv-x="689" 
d="M454 97h-222l-35 -97h-187l334 728l335 -728h-190zM277 219h130l-64 186zM398 748q-18 0 -31 4t-23.5 9.5t-19 9.5t-15.5 4q-9 0 -17 -5.5t-13 -11.5q-6 -7 -11 -16l-79 35q0 21 7 42t20 38t32 27.5t42 10.5q18 0 31 -4t23.5 -9.5t18.5 -9.5t16 -4q9 0 16.5 5t12.5 11
q6 7 11 17l80 -36q0 -21 -7 -42t-20.5 -37.5t-32 -27t-41.5 -10.5z" />
    <glyph glyph-name="Adieresis" unicode="&#xc4;" horiz-adv-x="689" 
d="M454 97h-222l-35 -97h-187l334 728l335 -728h-190zM277 219h130l-64 186zM163 755v131h131v-131h-131zM395 755v131h131v-131h-131z" />
    <glyph glyph-name="Aring" unicode="&#xc5;" horiz-adv-x="689" 
d="M203 837q0 27 10.5 50t29 40t44.5 26.5t57 9.5t57 -9.5t45 -26.5t29.5 -40t10.5 -50q0 -26 -10 -48t-28 -39t-42.5 -27t-54.5 -11l328 -712h-190l-35 97h-222l-35 -97h-187l326 712q-30 1 -54.5 11t-42 27t-27 39t-9.5 48zM277 219h130l-64 186zM299 837
q0 -20 12.5 -33.5t32.5 -13.5t32.5 13.5t12.5 33.5t-12.5 33.5t-32.5 13.5t-32.5 -13.5t-12.5 -33.5z" />
    <glyph glyph-name="AE" unicode="&#xc6;" horiz-adv-x="1020" 
d="M954 682v-155h-315v-107h268v-153h-268v-112h321v-155h-486v126h-202l-73 -126h-189l421 682h523zM474 474l-119 -208h119v208z" />
    <glyph glyph-name="Ccedilla" unicode="&#xc7;" horiz-adv-x="632" 
d="M580 488q-23 12 -50 23q-24 8 -56.5 15.5t-72.5 7.5q-43 0 -79 -15.5t-62 -41.5t-40.5 -61t-14.5 -75q0 -39 14.5 -74t40.5 -61.5t62 -42t79 -15.5q45 0 80.5 9.5t60.5 21.5q29 13 50 31v-168q-18 -11 -43 -21q-21 -8 -50.5 -16.5t-65.5 -12.5l-9 -29q20 -5 36 -16
q14 -9 25.5 -24t11.5 -38q0 -25 -11 -43t-29 -29.5t-40 -17t-43 -5.5q-20 0 -36 3.5t-28 8.5q-14 5 -25 13v64q7 -4 16 -7q7 -2 16 -4t19 -2q17 0 27.5 6.5t10.5 17.5q0 14 -9 24.5t-20 16.5q-12 7 -28 12l18 52q-63 10 -117 40.5t-93.5 76.5t-62 105t-22.5 125
q0 73 27.5 137t75.5 111t113 74.5t139 27.5q45 0 79 -6t58 -14q27 -9 48 -20v-164z" />
    <glyph glyph-name="Egrave" unicode="&#xc8;" horiz-adv-x="645" 
d="M585 0h-500v682h494v-155h-329v-107h280v-152h-280v-113h335v-155zM282 938l203 -122l-45 -97l-228 92z" />
    <glyph glyph-name="Eacute" unicode="&#xc9;" horiz-adv-x="645" 
d="M585 0h-500v682h494v-155h-329v-107h280v-152h-280v-113h335v-155zM484 811l-228 -92l-45 97l203 122z" />
    <glyph glyph-name="Ecircumflex" unicode="&#xca;" horiz-adv-x="645" 
d="M585 0h-500v682h494v-155h-329v-107h280v-152h-280v-113h335v-155zM508 825l-48 -84l-113 59l-113 -59l-48 84l161 118z" />
    <glyph glyph-name="Edieresis" unicode="&#xcb;" horiz-adv-x="645" 
d="M585 0h-500v682h494v-155h-329v-107h280v-152h-280v-113h335v-155zM166 755v131h131v-131h-131zM398 755v131h131v-131h-131z" />
    <glyph glyph-name="Igrave" unicode="&#xcc;" horiz-adv-x="348" 
d="M258 682v-682h-168v682h168zM107 938l203 -122l-45 -97l-228 92z" />
    <glyph glyph-name="Iacute" unicode="&#xcd;" horiz-adv-x="348" 
d="M258 682v-682h-168v682h168zM310 811l-228 -92l-45 97l203 122z" />
    <glyph glyph-name="Icircumflex" unicode="&#xce;" horiz-adv-x="348" 
d="M258 682v-682h-168v682h168zM335 825l-48 -84l-113 59l-113 -59l-48 84l161 118z" />
    <glyph glyph-name="Idieresis" unicode="&#xcf;" horiz-adv-x="348" 
d="M258 682v-682h-168v682h168zM-7 755v131h131v-131h-131zM225 755v131h131v-131h-131z" />
    <glyph glyph-name="Eth" unicode="&#xd0;" horiz-adv-x="713" 
d="M30 419h69v263h216q85 0 152 -25.5t112.5 -70.5t69.5 -107.5t24 -137.5q0 -74 -24 -136.5t-69.5 -108t-112.5 -71t-152 -25.5h-216v269h-69v150zM264 419h106v-150h-106v-114h55q47 0 82.5 14.5t59 39.5t35.5 59t12 73q0 40 -12 74t-35.5 59t-59 39t-82.5 14h-55v-108z
" />
    <glyph glyph-name="Ntilde" unicode="&#xd1;" horiz-adv-x="747" 
d="M250 347v-347h-165v720l412 -390v352h165v-721zM427 748q-18 0 -31 4t-23.5 9.5t-19 9.5t-15.5 4q-9 0 -17 -5.5t-13 -11.5q-6 -7 -11 -16l-79 35q0 21 7 42t20 38t32 27.5t42 10.5q18 0 31 -4t23.5 -9.5t18.5 -9.5t16 -4q9 0 16.5 5t12.5 11q6 7 11 17l80 -36
q0 -21 -7 -42t-20.5 -37.5t-32 -27t-41.5 -10.5z" />
    <glyph glyph-name="Ograve" unicode="&#xd2;" horiz-adv-x="789" 
d="M40 342q0 73 27.5 137t75.5 111t112.5 74.5t138.5 27.5t139 -27.5t113 -74.5t75.5 -111t27.5 -137t-27.5 -137t-75.5 -112t-113 -75.5t-139 -27.5t-138.5 27.5t-112.5 75.5t-75.5 112t-27.5 137zM205 342q0 -39 15 -74.5t40.5 -62t60 -42t73.5 -15.5t73.5 15.5t60.5 42
t41 62t15 74.5t-15 74t-41 61.5t-60.5 41.5t-73.5 15t-73.5 -15t-60 -41.5t-40.5 -61.5t-15 -74zM328 938l203 -122l-45 -97l-228 92z" />
    <glyph glyph-name="Oacute" unicode="&#xd3;" horiz-adv-x="789" 
d="M40 342q0 73 27.5 137t75.5 111t112.5 74.5t138.5 27.5t139 -27.5t113 -74.5t75.5 -111t27.5 -137t-27.5 -137t-75.5 -112t-113 -75.5t-139 -27.5t-138.5 27.5t-112.5 75.5t-75.5 112t-27.5 137zM205 342q0 -39 15 -74.5t40.5 -62t60 -42t73.5 -15.5t73.5 15.5t60.5 42
t41 62t15 74.5t-15 74t-41 61.5t-60.5 41.5t-73.5 15t-73.5 -15t-60 -41.5t-40.5 -61.5t-15 -74zM531 811l-228 -92l-45 97l203 122z" />
    <glyph glyph-name="Ocircumflex" unicode="&#xd4;" horiz-adv-x="789" 
d="M40 342q0 73 27.5 137t75.5 111t112.5 74.5t138.5 27.5t139 -27.5t113 -74.5t75.5 -111t27.5 -137t-27.5 -137t-75.5 -112t-113 -75.5t-139 -27.5t-138.5 27.5t-112.5 75.5t-75.5 112t-27.5 137zM205 342q0 -39 15 -74.5t40.5 -62t60 -42t73.5 -15.5t73.5 15.5t60.5 42
t41 62t15 74.5t-15 74t-41 61.5t-60.5 41.5t-73.5 15t-73.5 -15t-60 -41.5t-40.5 -61.5t-15 -74zM555 825l-48 -84l-113 59l-113 -59l-48 84l161 118z" />
    <glyph glyph-name="Otilde" unicode="&#xd5;" horiz-adv-x="789" 
d="M40 342q0 73 27.5 137t75.5 111t112.5 74.5t138.5 27.5t139 -27.5t113 -74.5t75.5 -111t27.5 -137t-27.5 -137t-75.5 -112t-113 -75.5t-139 -27.5t-138.5 27.5t-112.5 75.5t-75.5 112t-27.5 137zM205 342q0 -39 15 -74.5t40.5 -62t60 -42t73.5 -15.5t73.5 15.5t60.5 42
t41 62t15 74.5t-15 74t-41 61.5t-60.5 41.5t-73.5 15t-73.5 -15t-60 -41.5t-40.5 -61.5t-15 -74zM448 748q-18 0 -31 4t-23.5 9.5t-19 9.5t-15.5 4q-9 0 -17 -5.5t-13 -11.5q-6 -7 -11 -16l-79 35q0 21 7 42t20 38t32 27.5t42 10.5q18 0 31 -4t23.5 -9.5t18.5 -9.5t16 -4
q9 0 16.5 5t12.5 11q6 7 11 17l80 -36q0 -21 -7 -42t-20.5 -37.5t-32 -27t-41.5 -10.5z" />
    <glyph glyph-name="Odieresis" unicode="&#xd6;" horiz-adv-x="789" 
d="M40 342q0 73 27.5 137t75.5 111t112.5 74.5t138.5 27.5t139 -27.5t113 -74.5t75.5 -111t27.5 -137t-27.5 -137t-75.5 -112t-113 -75.5t-139 -27.5t-138.5 27.5t-112.5 75.5t-75.5 112t-27.5 137zM205 342q0 -39 15 -74.5t40.5 -62t60 -42t73.5 -15.5t73.5 15.5t60.5 42
t41 62t15 74.5t-15 74t-41 61.5t-60.5 41.5t-73.5 15t-73.5 -15t-60 -41.5t-40.5 -61.5t-15 -74zM213 755v131h131v-131h-131zM445 755v131h131v-131h-131z" />
    <glyph glyph-name="multiply" unicode="&#xd7;" 
d="M155 540l119 -119l121 122l97 -98l-121 -121l119 -119l-96 -97l-120 119l-119 -118l-96 97l118 118l-118 120z" />
    <glyph glyph-name="Oslash" unicode="&#xd8;" horiz-adv-x="789" 
d="M125 112q-40 47 -62.5 105.5t-22.5 124.5q0 73 27.5 137t75.5 111t112.5 74.5t138.5 27.5q85 0 159 -37l56 71l112 -88l-55 -70q39 -46 61 -103.5t22 -122.5q0 -73 -27.5 -137t-75.5 -112t-113 -75.5t-139 -27.5q-43 0 -82.5 9.5t-74.5 26.5l-56 -72l-112 88zM203 342
q0 -54 25 -99l225 285q-14 5 -29 7.5t-30 2.5q-40 0 -74.5 -15.5t-60.5 -42.5t-41 -62.5t-15 -75.5zM586 342q0 26 -6.5 49.5t-17.5 44.5l-224 -283q25 -9 56 -9q40 0 75 16t61 43t41 63t15 76z" />
    <glyph glyph-name="Ugrave" unicode="&#xd9;" horiz-adv-x="731" 
d="M240 278q0 -29 10 -53t27 -41t40 -26t49 -9q25 0 48 9t39.5 26t26.5 41t10 53v404h166v-397q0 -78 -26.5 -133.5t-68 -91.5t-93 -53t-102.5 -17q-53 0 -105 17t-93.5 53t-67 92t-25.5 133v397h165v-404zM299 938l203 -122l-45 -97l-228 92z" />
    <glyph glyph-name="Uacute" unicode="&#xda;" horiz-adv-x="731" 
d="M240 278q0 -29 10 -53t27 -41t40 -26t49 -9q25 0 48 9t39.5 26t26.5 41t10 53v404h166v-397q0 -78 -26.5 -133.5t-68 -91.5t-93 -53t-102.5 -17q-53 0 -105 17t-93.5 53t-67 92t-25.5 133v397h165v-404zM502 811l-228 -92l-45 97l203 122z" />
    <glyph glyph-name="Ucircumflex" unicode="&#xdb;" horiz-adv-x="731" 
d="M240 278q0 -29 10 -53t27 -41t40 -26t49 -9q25 0 48 9t39.5 26t26.5 41t10 53v404h166v-397q0 -78 -26.5 -133.5t-68 -91.5t-93 -53t-102.5 -17q-53 0 -105 17t-93.5 53t-67 92t-25.5 133v397h165v-404zM526 825l-48 -84l-113 59l-113 -59l-48 84l161 118z" />
    <glyph glyph-name="Udieresis" unicode="&#xdc;" horiz-adv-x="731" 
d="M240 278q0 -29 10 -53t27 -41t40 -26t49 -9q25 0 48 9t39.5 26t26.5 41t10 53v404h166v-397q0 -78 -26.5 -133.5t-68 -91.5t-93 -53t-102.5 -17q-53 0 -105 17t-93.5 53t-67 92t-25.5 133v397h165v-404zM184 755v131h131v-131h-131zM416 755v131h131v-131h-131z" />
    <glyph glyph-name="Yacute" unicode="&#xdd;" horiz-adv-x="659" 
d="M247 271l-237 411h185l135 -278l134 278h185l-237 -411v-271h-165v271zM466 811l-228 -92l-45 97l203 122z" />
    <glyph glyph-name="Thorn" unicode="&#xde;" horiz-adv-x="618" 
d="M588 373q0 -46 -16 -87t-46 -71.5t-73.5 -48.5t-99.5 -18h-103v-148h-165v682h165v-85h103q57 0 100.5 -18t73.5 -48.5t45.5 -71.5t15.5 -86zM250 302h102q34 0 53 19.5t19 50.5q0 29 -19 49.5t-53 20.5h-102v-140z" />
    <glyph glyph-name="germandbls" unicode="&#xdf;" horiz-adv-x="635" 
d="M321 597q-29 0 -47 -19.5t-18 -48.5v-529h-159v329h-57v149h57v56q0 33 13 68t40 63.5t69 46.5t100 18q42 0 80.5 -12.5t68 -35.5t46.5 -55.5t17 -72.5t-11 -64t-24 -41.5t-24 -31.5t-11 -33q0 -18 22.5 -34.5t49.5 -41t49.5 -60.5t22.5 -92q0 -31 -12.5 -60.5t-38 -53
t-65 -37.5t-92.5 -14q-24 0 -41 2.5t-28 6.5q-13 4 -22 9v135q12 -6 27 -10q13 -4 29 -7t35 -3t31.5 9t12.5 25t-9.5 29.5t-23.5 26.5t-30.5 27.5t-30.5 33.5t-23.5 43.5t-9.5 57.5q0 36 10 59t21.5 40t21.5 32.5t10 37.5q0 25 -16.5 38.5t-39.5 13.5z" />
    <glyph glyph-name="agrave" unicode="&#xe0;" horiz-adv-x="616" 
d="M541 0h-145l-8 51q-11 -18 -29 -31q-15 -11 -39.5 -20.5t-60.5 -9.5q-44 0 -84 19t-70 52.5t-47.5 79t-17.5 98.5q0 54 18 99.5t48 78.5t69.5 52t83.5 19q35 0 59 -9.5t40 -20.5q18 -13 30 -29l3 49h150v-478zM296 343q-46 0 -73.5 -30.5t-27.5 -73.5q0 -21 7 -40
t20.5 -33.5t32 -23t41.5 -8.5t39 7.5t27 16.5q12 11 20 24v113q-8 13 -20 24q-11 9 -27 16.5t-39 7.5zM241 734l203 -122l-45 -97l-228 92z" />
    <glyph glyph-name="aacute" unicode="&#xe1;" horiz-adv-x="616" 
d="M541 0h-145l-8 51q-11 -18 -29 -31q-15 -11 -39.5 -20.5t-60.5 -9.5q-44 0 -84 19t-70 52.5t-47.5 79t-17.5 98.5q0 54 18 99.5t48 78.5t69.5 52t83.5 19q35 0 59 -9.5t40 -20.5q18 -13 30 -29l3 49h150v-478zM296 343q-46 0 -73.5 -30.5t-27.5 -73.5q0 -21 7 -40
t20.5 -33.5t32 -23t41.5 -8.5t39 7.5t27 16.5q12 11 20 24v113q-8 13 -20 24q-11 9 -27 16.5t-39 7.5zM444 607l-228 -92l-45 97l203 122z" />
    <glyph glyph-name="acircumflex" unicode="&#xe2;" horiz-adv-x="616" 
d="M541 0h-145l-8 51q-11 -18 -29 -31q-15 -11 -39.5 -20.5t-60.5 -9.5q-44 0 -84 19t-70 52.5t-47.5 79t-17.5 98.5q0 54 18 99.5t48 78.5t69.5 52t83.5 19q35 0 59 -9.5t40 -20.5q18 -13 30 -29l3 49h150v-478zM296 343q-46 0 -73.5 -30.5t-27.5 -73.5q0 -21 7 -40
t20.5 -33.5t32 -23t41.5 -8.5t39 7.5t27 16.5q12 11 20 24v113q-8 13 -20 24q-11 9 -27 16.5t-39 7.5zM469 621l-48 -84l-113 59l-113 -59l-48 84l161 118z" />
    <glyph glyph-name="atilde" unicode="&#xe3;" horiz-adv-x="616" 
d="M541 0h-145l-8 51q-11 -18 -29 -31q-15 -11 -39.5 -20.5t-60.5 -9.5q-44 0 -84 19t-70 52.5t-47.5 79t-17.5 98.5q0 54 18 99.5t48 78.5t69.5 52t83.5 19q35 0 59 -9.5t40 -20.5q18 -13 30 -29l3 49h150v-478zM296 343q-46 0 -73.5 -30.5t-27.5 -73.5q0 -21 7 -40
t20.5 -33.5t32 -23t41.5 -8.5t39 7.5t27 16.5q12 11 20 24v113q-8 13 -20 24q-11 9 -27 16.5t-39 7.5zM362 544q-18 0 -31 4t-23.5 9.5t-19 9.5t-15.5 4q-9 0 -17 -5.5t-13 -11.5q-6 -7 -11 -16l-79 35q0 21 7 42t20 38t32 27.5t42 10.5q18 0 31 -4t23.5 -9.5t18.5 -9.5
t16 -4q9 0 16.5 5t12.5 11q6 7 11 17l80 -36q0 -21 -7 -42t-20.5 -37.5t-32 -27t-41.5 -10.5z" />
    <glyph glyph-name="adieresis" unicode="&#xe4;" horiz-adv-x="616" 
d="M541 0h-145l-8 51q-11 -18 -29 -31q-15 -11 -39.5 -20.5t-60.5 -9.5q-44 0 -84 19t-70 52.5t-47.5 79t-17.5 98.5q0 54 18 99.5t48 78.5t69.5 52t83.5 19q35 0 59 -9.5t40 -20.5q18 -13 30 -29l3 49h150v-478zM296 343q-46 0 -73.5 -30.5t-27.5 -73.5q0 -21 7 -40
t20.5 -33.5t32 -23t41.5 -8.5t39 7.5t27 16.5q12 11 20 24v113q-8 13 -20 24q-11 9 -27 16.5t-39 7.5zM126 551v131h131v-131h-131zM358 551v131h131v-131h-131z" />
    <glyph glyph-name="aring" unicode="&#xe5;" horiz-adv-x="616" 
d="M541 0h-145l-8 51q-11 -18 -29 -31q-15 -11 -39.5 -20.5t-60.5 -9.5q-44 0 -84 19t-70 52.5t-47.5 79t-17.5 98.5q0 54 18 99.5t48 78.5t69.5 52t83.5 19q35 0 59 -9.5t40 -20.5q18 -13 30 -29l3 49h150v-478zM296 343q-46 0 -73.5 -30.5t-27.5 -73.5q0 -21 7 -40
t20.5 -33.5t32 -23t41.5 -8.5t39 7.5t27 16.5q12 11 20 24v113q-8 13 -20 24q-11 9 -27 16.5t-39 7.5zM166 633q0 27 10.5 50t29 40t44.5 26.5t57 9.5t57 -9.5t45 -26.5t29.5 -40t10.5 -50q0 -26 -10.5 -49t-29.5 -40t-45 -26.5t-57 -9.5t-57 9.5t-44.5 26.5t-29 40
t-10.5 49zM262 633q0 -20 12.5 -33.5t32.5 -13.5t32.5 13.5t12.5 33.5t-12.5 33.5t-32.5 13.5t-32.5 -13.5t-12.5 -33.5z" />
    <glyph glyph-name="ae" unicode="&#xe6;" horiz-adv-x="940" 
d="M571 192q8 -29 39.5 -51.5t80.5 -22.5q32 0 62.5 5t53.5 11q27 7 51 16v-123q-23 -11 -50 -19q-23 -7 -55 -12.5t-70 -5.5t-66.5 8t-46.5 18q-22 11 -36 26l-3 -42h-137l-6 48q-11 -17 -29 -29q-15 -11 -39 -20t-59 -9q-45 0 -85 19t-70 52.5t-48 79t-18 98.5
q0 54 18 99.5t48 78.5t69.5 51.5t83.5 18.5q35 0 59 -9t40 -20q18 -12 30 -28l3 48h139l2 -46q17 16 39 28q19 11 45.5 19.5t59.5 8.5q54 0 96 -21.5t70.5 -55t43 -74.5t14.5 -80q0 -14 -1 -26.5t-3 -20.5l-3 -18h-322zM296 343q-44 0 -72.5 -30.5t-28.5 -73.5
q0 -21 7.5 -40t21 -34t32 -23.5t40.5 -8.5q23 0 38.5 7.5t26.5 16.5q12 11 21 25v112q-9 13 -21 24q-11 9 -26.5 17t-38.5 8zM673 365q-21 0 -38.5 -7t-30.5 -19t-21.5 -26.5t-10.5 -29.5h197q-2 13 -9 27.5t-19.5 26.5t-29.5 20t-38 8z" />
    <glyph glyph-name="ccedilla" unicode="&#xe7;" horiz-adv-x="487" 
d="M432 306q-17 10 -36 18q-17 7 -39 13t-48 6t-47 -8.5t-35.5 -23t-22.5 -33t-8 -38.5q0 -43 30.5 -74t82.5 -31q31 0 54.5 5.5t40.5 12.5q19 8 33 19v-148q-12 -7 -27 -12q-13 -5 -31 -10t-40 -8l-10 -31q20 -5 36 -16q14 -9 25.5 -24t11.5 -38q0 -25 -11 -43t-29 -29.5
t-40 -17t-43 -5.5q-20 0 -36 3.5t-28 8.5q-14 5 -25 13v64q7 -4 16 -7q7 -2 16 -4t19 -2q17 0 27.5 6.5t10.5 17.5q0 14 -9 24.5t-20 16.5q-12 7 -28 12l18 53q-43 9 -79.5 31t-63.5 54t-42 73t-15 86q0 52 20 97t54.5 78.5t80.5 53t99 19.5q29 0 54 -5t44 -11q22 -7 40 -16
v-150z" />
    <glyph glyph-name="egrave" unicode="&#xe8;" horiz-adv-x="579" 
d="M208 192q8 -29 37.5 -50.5t74.5 -21.5q36 0 67.5 5t55.5 11q28 7 52 17v-126q-24 -11 -53 -19q-26 -7 -60.5 -12.5t-78.5 -5.5q-58 0 -106.5 19.5t-83 53.5t-54 79.5t-19.5 97.5t20.5 97t56 78.5t83.5 53t102 19.5q60 0 104.5 -21.5t74 -55t44 -74.5t14.5 -80
q0 -14 -1 -26.5t-2 -20.5l-3 -18h-325zM309 364q-38 0 -65.5 -24.5t-35.5 -56.5h197q-2 14 -9.5 28.5t-20 26t-29.5 19t-37 7.5zM235 734l203 -122l-45 -97l-228 92z" />
    <glyph glyph-name="eacute" unicode="&#xe9;" horiz-adv-x="579" 
d="M208 192q8 -29 37.5 -50.5t74.5 -21.5q36 0 67.5 5t55.5 11q28 7 52 17v-126q-24 -11 -53 -19q-26 -7 -60.5 -12.5t-78.5 -5.5q-58 0 -106.5 19.5t-83 53.5t-54 79.5t-19.5 97.5t20.5 97t56 78.5t83.5 53t102 19.5q60 0 104.5 -21.5t74 -55t44 -74.5t14.5 -80
q0 -14 -1 -26.5t-2 -20.5l-3 -18h-325zM309 364q-38 0 -65.5 -24.5t-35.5 -56.5h197q-2 14 -9.5 28.5t-20 26t-29.5 19t-37 7.5zM437 607l-228 -92l-45 97l203 122z" />
    <glyph glyph-name="ecircumflex" unicode="&#xea;" horiz-adv-x="579" 
d="M208 192q8 -29 37.5 -50.5t74.5 -21.5q36 0 67.5 5t55.5 11q28 7 52 17v-126q-24 -11 -53 -19q-26 -7 -60.5 -12.5t-78.5 -5.5q-58 0 -106.5 19.5t-83 53.5t-54 79.5t-19.5 97.5t20.5 97t56 78.5t83.5 53t102 19.5q60 0 104.5 -21.5t74 -55t44 -74.5t14.5 -80
q0 -14 -1 -26.5t-2 -20.5l-3 -18h-325zM309 364q-38 0 -65.5 -24.5t-35.5 -56.5h197q-2 14 -9.5 28.5t-20 26t-29.5 19t-37 7.5zM461 621l-48 -84l-113 59l-113 -59l-48 84l161 118z" />
    <glyph glyph-name="edieresis" unicode="&#xeb;" horiz-adv-x="579" 
d="M208 192q8 -29 37.5 -50.5t74.5 -21.5q36 0 67.5 5t55.5 11q28 7 52 17v-126q-24 -11 -53 -19q-26 -7 -60.5 -12.5t-78.5 -5.5q-58 0 -106.5 19.5t-83 53.5t-54 79.5t-19.5 97.5t20.5 97t56 78.5t83.5 53t102 19.5q60 0 104.5 -21.5t74 -55t44 -74.5t14.5 -80
q0 -14 -1 -26.5t-2 -20.5l-3 -18h-325zM309 364q-38 0 -65.5 -24.5t-35.5 -56.5h197q-2 14 -9.5 28.5t-20 26t-29.5 19t-37 7.5zM122 551v131h131v-131h-131zM354 551v131h131v-131h-131z" />
    <glyph glyph-name="igrave" unicode="&#xec;" horiz-adv-x="325" 
d="M243 478v-478h-162v478h162zM96 734l203 -122l-45 -97l-228 92z" />
    <glyph glyph-name="iacute" unicode="&#xed;" horiz-adv-x="325" 
d="M243 478v-478h-162v478h162zM299 607l-228 -92l-45 97l203 122z" />
    <glyph glyph-name="icircumflex" unicode="&#xee;" horiz-adv-x="325" 
d="M243 478v-478h-162v478h162zM323 621l-48 -84l-113 59l-113 -59l-48 84l161 118z" />
    <glyph glyph-name="idieresis" unicode="&#xef;" horiz-adv-x="325" 
d="M243 478v-478h-162v478h162zM-19 551v131h131v-131h-131zM213 551v131h131v-131h-131z" />
    <glyph glyph-name="eth" unicode="&#xf0;" horiz-adv-x="572" 
d="M179 552l23 25q-19 5 -38 5.5t-39 0.5l-6 140q8 1 14.5 1h14.5q90 0 160 -31l46 49l85 -84l-32 -34q29 -30 50.5 -68t36 -81t21.5 -89t7 -92q0 -83 -20.5 -140.5t-55 -94t-80 -53t-94.5 -16.5q-47 0 -89.5 18t-74 49.5t-50 74t-18.5 90.5q0 51 18 92t48 70t69 45t81 16
q24 0 41.5 -3.5t29.5 -8.5q13 -5 23 -11q-5 26 -19.5 51.5t-25.5 40.5l-41 -44zM370 260q0 4 -0.5 9t-1.5 10t-1 11q-10 9 -22 17q-11 6 -26.5 11.5t-35.5 5.5q-21 0 -38 -8t-28.5 -21.5t-18 -31t-6.5 -35.5t6.5 -34t18 -28.5t27.5 -20t35 -7.5q16 0 32.5 5.5t29.5 19
t21 37.5t8 60z" />
    <glyph glyph-name="ntilde" unicode="&#xf1;" horiz-adv-x="619" 
d="M549 0h-159v275q0 29 -15 49t-50 20q-20 0 -36.5 -7t-28.5 -15q-14 -10 -26 -21v-301h-159v478h152l6 -51q17 17 38 30q18 11 43 20.5t54 9.5q36 0 68.5 -12.5t57.5 -38t40 -63.5t15 -90v-283zM369 544q-18 0 -31 4t-23.5 9.5t-19 9.5t-15.5 4q-9 0 -17 -5.5t-13 -11.5
q-6 -7 -11 -16l-79 35q0 21 7 42t20 38t32 27.5t42 10.5q18 0 31 -4t23.5 -9.5t18.5 -9.5t16 -4q9 0 16.5 5t12.5 11q6 7 11 17l80 -36q0 -21 -7 -42t-20.5 -37.5t-32 -27t-41.5 -10.5z" />
    <glyph glyph-name="ograve" unicode="&#xf2;" horiz-adv-x="594" 
d="M554 239q0 -52 -20 -97.5t-55 -79t-82 -53t-100 -19.5q-54 0 -101 19.5t-81.5 53t-54.5 79t-20 97.5t20 97.5t55 79t81.5 53t100.5 19.5q53 0 99.5 -19.5t81.5 -53t55.5 -79t20.5 -97.5zM397 239q0 43 -28 74t-72 31t-71.5 -31t-27.5 -74q0 -21 7.5 -40t20.5 -33.5
t31 -23t40 -8.5t40 8.5t31.5 23t21 33.5t7.5 40zM230 734l203 -122l-45 -97l-228 92z" />
    <glyph glyph-name="oacute" unicode="&#xf3;" horiz-adv-x="594" 
d="M554 239q0 -52 -20 -97.5t-55 -79t-82 -53t-100 -19.5q-54 0 -101 19.5t-81.5 53t-54.5 79t-20 97.5t20 97.5t55 79t81.5 53t100.5 19.5q53 0 99.5 -19.5t81.5 -53t55.5 -79t20.5 -97.5zM397 239q0 43 -28 74t-72 31t-71.5 -31t-27.5 -74q0 -21 7.5 -40t20.5 -33.5
t31 -23t40 -8.5t40 8.5t31.5 23t21 33.5t7.5 40zM433 607l-228 -92l-45 97l203 122z" />
    <glyph glyph-name="ocircumflex" unicode="&#xf4;" horiz-adv-x="594" 
d="M554 239q0 -52 -20 -97.5t-55 -79t-82 -53t-100 -19.5q-54 0 -101 19.5t-81.5 53t-54.5 79t-20 97.5t20 97.5t55 79t81.5 53t100.5 19.5q53 0 99.5 -19.5t81.5 -53t55.5 -79t20.5 -97.5zM397 239q0 43 -28 74t-72 31t-71.5 -31t-27.5 -74q0 -21 7.5 -40t20.5 -33.5
t31 -23t40 -8.5t40 8.5t31.5 23t21 33.5t7.5 40zM458 621l-48 -84l-113 59l-113 -59l-48 84l161 118z" />
    <glyph glyph-name="otilde" unicode="&#xf5;" horiz-adv-x="594" 
d="M554 239q0 -52 -20 -97.5t-55 -79t-82 -53t-100 -19.5q-54 0 -101 19.5t-81.5 53t-54.5 79t-20 97.5t20 97.5t55 79t81.5 53t100.5 19.5q53 0 99.5 -19.5t81.5 -53t55.5 -79t20.5 -97.5zM397 239q0 43 -28 74t-72 31t-71.5 -31t-27.5 -74q0 -21 7.5 -40t20.5 -33.5
t31 -23t40 -8.5t40 8.5t31.5 23t21 33.5t7.5 40zM351 544q-18 0 -31 4t-23.5 9.5t-19 9.5t-15.5 4q-9 0 -17 -5.5t-13 -11.5q-6 -7 -11 -16l-79 35q0 21 7 42t20 38t32 27.5t42 10.5q18 0 31 -4t23.5 -9.5t18.5 -9.5t16 -4q9 0 16.5 5t12.5 11q6 7 11 17l80 -36
q0 -21 -7 -42t-20.5 -37.5t-32 -27t-41.5 -10.5z" />
    <glyph glyph-name="odieresis" unicode="&#xf6;" horiz-adv-x="594" 
d="M554 239q0 -52 -20 -97.5t-55 -79t-82 -53t-100 -19.5q-54 0 -101 19.5t-81.5 53t-54.5 79t-20 97.5t20 97.5t55 79t81.5 53t100.5 19.5q53 0 99.5 -19.5t81.5 -53t55.5 -79t20.5 -97.5zM397 239q0 43 -28 74t-72 31t-71.5 -31t-27.5 -74q0 -21 7.5 -40t20.5 -33.5
t31 -23t40 -8.5t40 8.5t31.5 23t21 33.5t7.5 40zM115 551v131h131v-131h-131zM347 551v131h131v-131h-131z" />
    <glyph glyph-name="divide" unicode="&#xf7;" 
d="M350 444h-154v137h154v-137zM490 394v-137h-430v137h430zM350 71h-154v137h154v-137z" />
    <glyph glyph-name="oslash" unicode="&#xf8;" horiz-adv-x="594" 
d="M106 70q-31 33 -48.5 76t-17.5 93q0 52 20 97.5t55 79t81.5 53t100.5 19.5q68 0 126 -32l47 58l60 -50l-45 -55q32 -34 50.5 -77t18.5 -93q0 -52 -20 -97.5t-55 -79t-82 -53t-100 -19.5q-72 0 -128 32l-48 -59l-61 50zM407 239q0 31 -14 57l-136 -166q17 -7 40 -7
q24 0 44 9.5t35 25.5t23 37t8 44zM188 239q0 -30 12 -55l134 163q-9 3 -18 5t-19 2q-24 0 -44 -9t-34.5 -25t-22.5 -36.5t-8 -44.5z" />
    <glyph glyph-name="ugrave" unicode="&#xf9;" horiz-adv-x="614" 
d="M65 478h159v-275q0 -29 15 -49t50 -20q20 0 36.5 6.5t28.5 14.5q14 10 26 22v301h159v-478h-152l-6 51q-17 -17 -38 -30q-18 -11 -43 -20.5t-54 -9.5q-36 0 -68.5 12.5t-57.5 38t-40 63.5t-15 90v283zM243 734l203 -122l-45 -97l-228 92z" />
    <glyph glyph-name="uacute" unicode="&#xfa;" horiz-adv-x="614" 
d="M65 478h159v-275q0 -29 15 -49t50 -20q20 0 36.5 6.5t28.5 14.5q14 10 26 22v301h159v-478h-152l-6 51q-17 -17 -38 -30q-18 -11 -43 -20.5t-54 -9.5q-36 0 -68.5 12.5t-57.5 38t-40 63.5t-15 90v283zM446 607l-228 -92l-45 97l203 122z" />
    <glyph glyph-name="ucircumflex" unicode="&#xfb;" horiz-adv-x="614" 
d="M65 478h159v-275q0 -29 15 -49t50 -20q20 0 36.5 6.5t28.5 14.5q14 10 26 22v301h159v-478h-152l-6 51q-17 -17 -38 -30q-18 -11 -43 -20.5t-54 -9.5q-36 0 -68.5 12.5t-57.5 38t-40 63.5t-15 90v283zM470 621l-48 -84l-113 59l-113 -59l-48 84l161 118z" />
    <glyph glyph-name="udieresis" unicode="&#xfc;" horiz-adv-x="614" 
d="M65 478h159v-275q0 -29 15 -49t50 -20q20 0 36.5 6.5t28.5 14.5q14 10 26 22v301h159v-478h-152l-6 51q-17 -17 -38 -30q-18 -11 -43 -20.5t-54 -9.5q-36 0 -68.5 12.5t-57.5 38t-40 63.5t-15 90v283zM128 551v131h131v-131h-131zM360 551v131h131v-131h-131z" />
    <glyph glyph-name="yacute" unicode="&#xfd;" horiz-adv-x="576" 
d="M566 478l-302 -678h-161l108 238l-201 440h172l106 -270l115 270h163zM426 607l-228 -92l-45 97l203 122z" />
    <glyph glyph-name="thorn" unicode="&#xfe;" horiz-adv-x="611" 
d="M75 720h159v-268q13 9 31 17q15 7 37 12.5t50 5.5q46 0 86 -19t69.5 -52t46.5 -78.5t17 -98.5q0 -54 -18 -99.5t-48 -78.5t-69.5 -51.5t-83.5 -18.5q-29 0 -51 5.5t-37 12.5q-18 8 -30 19v-228h-159v920zM320 140q44 0 70.5 28t26.5 71q0 42 -26.5 71t-70.5 29
q-20 0 -36 -6t-27 -14q-13 -9 -23 -20v-118q10 -12 23 -21q11 -8 27 -14t36 -6z" />
    <glyph glyph-name="ydieresis" unicode="&#xff;" horiz-adv-x="576" 
d="M566 478l-302 -678h-161l108 238l-201 440h172l106 -270l115 270h163zM107 551v131h131v-131h-131zM339 551v131h131v-131h-131z" />
    <glyph glyph-name="OE" unicode="&#x152;" horiz-adv-x="1040" 
d="M1005 0h-493v26q-16 -10 -37 -18q-18 -7 -43 -12.5t-56 -5.5q-69 0 -130.5 27.5t-107 75.5t-72 112t-26.5 137t26.5 137t72 111t107 74.5t130.5 27.5q31 0 56 -5.5t43 -11.5q21 -8 37 -17v24h487v-155h-322v-107h273v-152h-273v-113h328v-155zM388 148q31 0 54 6.5
t39 14.5q18 10 31 22v300q-12 11 -30 21q-15 8 -37.5 15t-51.5 7q-40 0 -74 -15t-59.5 -41.5t-40 -61.5t-14.5 -74t14 -74.5t39 -62t58 -42t72 -15.5z" />
    <glyph glyph-name="oe" unicode="&#x153;" horiz-adv-x="928" 
d="M566 192q8 -29 38.5 -51t78.5 -22q35 0 64.5 4.5t51.5 10.5q26 7 47 16v-126q-22 -10 -49 -17q-23 -7 -55.5 -12t-71.5 -5q-66 0 -113.5 19t-80.5 52q-35 -33 -80.5 -52t-97.5 -19q-56 0 -103 19.5t-81.5 53t-54 79t-19.5 97.5t19.5 97.5t54 79t82 53t102.5 19.5
q52 0 98 -19.5t81 -52.5q34 33 79 52.5t97 19.5q57 0 101 -21.5t74 -55t45 -74.5t15 -80q0 -14 -1 -26.5t-3 -20.5l-3 -18h-315zM396 239q0 43 -28 74t-72 31t-71.5 -31t-27.5 -74q0 -21 7.5 -40t20.5 -33.5t31 -23t40 -8.5t40 8.5t31.5 23t21 33.5t7.5 40zM667 364
q-38 0 -65.5 -24.5t-35.5 -56.5h197q-2 14 -9.5 28.5t-20 26t-29.5 19t-37 7.5z" />
    <glyph glyph-name="Scaron" unicode="&#x160;" horiz-adv-x="605" 
d="M500 488q-26 14 -58 25q-27 10 -62.5 18t-76.5 8q-33 0 -54.5 -12t-21.5 -34q0 -20 24 -33t60.5 -26.5t79 -30t79 -42t61 -64t24.5 -94.5q0 -43 -18.5 -81.5t-53.5 -68t-85.5 -46.5t-115.5 -17q-48 0 -88.5 8t-70.5 18q-35 11 -63 27v167q30 -19 65 -33q30 -13 70 -23
t87 -10q17 0 34.5 3t31.5 10t23 17.5t9 25.5q0 23 -23.5 38.5t-59.5 29t-77 29t-77 40t-59.5 60t-23.5 90.5q0 52 20.5 90.5t55 64t78.5 38t92 12.5q43 0 79 -6.5t62 -14.5q30 -10 54 -21zM299 721l-161 118l48 84l113 -59l113 59l48 -84z" />
    <glyph glyph-name="scaron" unicode="&#x161;" horiz-adv-x="505" 
d="M428 321q-24 11 -52 20q-24 8 -55 14t-64 6q-20 0 -32 -7t-12 -21q0 -13 18.5 -20t46.5 -14t61 -15t61 -24t46.5 -41t18.5 -65q0 -35 -14 -64.5t-42.5 -52t-71 -35t-99.5 -12.5q-40 0 -73.5 6.5t-58.5 14.5q-29 10 -53 22v137q28 -16 59 -27q26 -10 60 -18t69 -8
q22 0 41.5 4.5t19.5 22.5q0 14 -18.5 21.5t-46.5 14.5t-61 15.5t-61 24.5t-46.5 42t-18.5 68q0 38 16.5 67.5t45 49.5t66.5 30.5t80 10.5q38 0 69 -5t54 -11q26 -7 48 -16zM258 517l-161 118l48 84l113 -59l113 59l48 -84z" />
    <glyph glyph-name="Ydieresis" unicode="&#x178;" horiz-adv-x="659" 
d="M247 271l-237 411h185l135 -278l134 278h185l-237 -411v-271h-165v271zM148 755v131h131v-131h-131zM380 755v131h131v-131h-131z" />
    <glyph glyph-name="Zcaron" unicode="&#x17d;" horiz-adv-x="642" 
d="M590 0h-551l304 527h-274v155h548l-303 -527h276v-155zM344 721l-161 118l48 84l113 -59l113 59l48 -84z" />
    <glyph glyph-name="zcaron" unicode="&#x17e;" horiz-adv-x="565" 
d="M508 0h-478l229 334h-194v144h470l-227 -334h200v-144zM282 517l-161 118l48 84l113 -59l113 59l48 -84z" />
    <glyph glyph-name="florin" unicode="&#x192;" 
d="M345 39q0 -34 -11 -66.5t-35.5 -58.5t-63 -42t-93.5 -16h-67v139h50q30 0 45 19t15 48v208h-140v149h140v80q0 34 11 66.5t35.5 58.5t63 42t93.5 16h79v-139h-62q-30 0 -45.5 -19t-15.5 -48v-57h162v-149h-162z" />
    <glyph glyph-name="circumflex" unicode="&#x2c6;" horiz-adv-x="322" 
d="M322 621l-48 -84l-113 59l-113 -59l-48 84l161 118z" />
    <glyph glyph-name="tilde" unicode="&#x2dc;" horiz-adv-x="310" 
d="M209 544q-18 0 -31 4t-23.5 9.5t-19 9.5t-15.5 4q-9 0 -17 -5.5t-13 -11.5q-6 -7 -11 -16l-79 35q0 21 7 42t20 38t32 27.5t42 10.5q18 0 31 -4t23.5 -9.5t18.5 -9.5t16 -4q9 0 16.5 5t12.5 11q6 7 11 17l80 -36q0 -21 -7 -42t-20.5 -37.5t-32 -27t-41.5 -10.5z" />
    <glyph glyph-name="endash" unicode="&#x2013;" horiz-adv-x="474" 
d="M474 197h-474v137h474v-137z" />
    <glyph glyph-name="emdash" unicode="&#x2014;" horiz-adv-x="948" 
d="M948 197h-948v137h948v-137z" />
    <glyph glyph-name="quoteleft" unicode="&#x2018;" horiz-adv-x="259" 
d="M45 435v159l87 138l67 -38l-46 -100v-10h45v-149h-153z" />
    <glyph glyph-name="quoteright" unicode="&#x2019;" horiz-adv-x="259" 
d="M214 720v-159l-87 -138l-67 38l46 100v10h-45v149h153z" />
    <glyph glyph-name="quotesinglbase" unicode="&#x201a;" horiz-adv-x="284" 
d="M219 149v-159l-87 -138l-67 38l46 100v10h-45v149h153z" />
    <glyph glyph-name="quotedblleft" unicode="&#x201c;" horiz-adv-x="482" 
d="M268 435v159l87 138l67 -38l-46 -100v-10h45v-149h-153zM45 435v159l87 138l67 -38l-46 -100v-10h45v-149h-153z" />
    <glyph glyph-name="quotedblright" unicode="&#x201d;" horiz-adv-x="482" 
d="M214 720v-159l-87 -138l-67 38l46 100v10h-45v149h153zM437 720v-159l-87 -138l-67 38l46 100v10h-45v149h153z" />
    <glyph glyph-name="quotedblbase" unicode="&#x201e;" horiz-adv-x="507" 
d="M219 149v-159l-87 -138l-67 38l46 100v10h-45v149h153zM442 149v-159l-87 -138l-67 38l46 100v10h-45v149h153z" />
    <glyph glyph-name="dagger" unicode="&#x2020;" horiz-adv-x="530" 
d="M324 361l20 -525h-157l21 526l-168 -17v153l165 -16l-19 199h158l-17 -199l163 16v-153z" />
    <glyph glyph-name="daggerdbl" unicode="&#x2021;" horiz-adv-x="528" 
d="M324 361l13 -104l-13 -101l164 16v-153l-163 16l17 -199h-158l19 199l-165 -16v153l166 -16l-13 101l13 104l-166 -16v153l165 -16l-19 199h158l-17 -199l163 16v-153z" />
    <glyph glyph-name="bullet" unicode="&#x2022;" horiz-adv-x="494" 
d="M434 302q0 -39 -14.5 -73t-40 -59.5t-59.5 -40t-73 -14.5t-73.5 14.5t-59.5 40t-39.5 59.5t-14.5 73t14.5 72.5t39.5 59t59.5 40t73.5 14.5q38 0 72 -15t59.5 -40.5t40.5 -59t15 -71.5z" />
    <glyph glyph-name="ellipsis" unicode="&#x2026;" horiz-adv-x="930" 
d="M240 169v-169h-170v169h170zM550 169v-169h-170v169h170zM860 169v-169h-170v169h170z" />
    <glyph glyph-name="perthousand" unicode="&#x2030;" horiz-adv-x="1274" 
d="M219 354q-36 0 -66.5 13t-53.5 36t-36 54t-13 66t13.5 66t36.5 54t53.5 36t65.5 13t66 -13t54 -36t36.5 -54t13.5 -66t-13 -66t-36 -54t-54 -36t-67 -13zM219 580q-23 0 -39.5 -16t-16.5 -41q0 -23 16.5 -40t39.5 -17q24 0 40 16.5t16 40.5q0 25 -16 41t-40 16zM665 -10
q-36 0 -66.5 13t-53.5 36t-36 54t-13 66t13.5 66t36.5 54t53.5 36t65.5 13t66 -13t54 -36t36.5 -54t13.5 -66t-13 -66t-36 -54t-54 -36t-67 -13zM665 216q-23 0 -39.5 -16t-16.5 -41q0 -23 16.5 -40t39.5 -17q24 0 40 16.5t16 40.5q0 25 -16 41t-40 16zM1054 -10
q-36 0 -66.5 13t-53.5 36t-36 54t-13 66t13.5 66t36.5 54t53.5 36t65.5 13t66 -13t54 -36t36.5 -54t13.5 -66t-13 -66t-36 -54t-54 -36t-67 -13zM1054 216q-23 0 -39.5 -16t-16.5 -41q0 -23 16.5 -40t39.5 -17q24 0 40 16.5t16 40.5q0 25 -16 41t-40 16zM572 692h128
l-387 -702h-129z" />
    <glyph glyph-name="guilsinglleft" unicode="&#x2039;" horiz-adv-x="379" 
d="M339 19h-157l-142 216l142 216h157l-140 -216z" />
    <glyph glyph-name="guilsinglright" unicode="&#x203a;" horiz-adv-x="379" 
d="M179 235l-139 216h157l142 -216l-142 -216h-157z" />
    <glyph glyph-name="Euro" unicode="&#x20ac;" 
d="M25 477h48q17 46 44 85t64.5 68t87 45.5t111.5 16.5q32 0 57.5 -3.5t43.5 -8.5q20 -5 36 -11v-158q-18 8 -40 15q-19 6 -44.5 11t-55.5 5q-51 0 -84 -18.5t-49 -46.5h169v-104h-207q-1 -3 -2 -7q-1 -5 -1 -18v-10t1 -9q0 -4 1 -8h167v-106h-135q18 -32 51.5 -54t87.5 -22
q33 0 60 5.5t46 12.5q22 8 40 18v-155q-15 -9 -37 -15q-19 -6 -47.5 -10.5t-66.5 -4.5q-58 0 -106.5 17t-86.5 47t-65 71.5t-42 89.5h-83l37 106h29q-1 4 -1 8v18v18q0 4 1 8h-66z" />
    <glyph glyph-name="trademark" unicode="&#x2122;" horiz-adv-x="880" 
d="M790 302h-126v176l-65 -72l-67 74v-178h-125v379h109l83 -100l82 100h109v-379zM344 556h-83v-254h-127v254h-83v125h293v-125z" />
    </font>
</defs>
</svg>
